<svg xmlns="http://www.w3.org/2000/svg" width="12.699" height="12.699" viewBox="0 0 12.699 12.699">
    <g>
        <g>
            <path fill="#fff" d="M11.68 8.335a7.21 7.21 0 0 1-2.264-.361 1.035 1.035 0 0 0-1.007.212L6.981 9.265a7.891 7.891 0 0 1-3.548-3.547L4.48 4.327a1.026 1.026 0 0 0 .252-1.04 7.221 7.221 0 0 1-.362-2.268A1.02 1.02 0 0 0 3.351 0H1.019A1.02 1.02 0 0 0 0 1.019 11.693 11.693 0 0 0 11.68 12.7a1.02 1.02 0 0 0 1.02-1.02V9.354a1.02 1.02 0 0 0-1.02-1.019z"/>
        </g>
    </g>
</svg>
