<svg xmlns="http://www.w3.org/2000/svg" width="404" height="482" viewBox="0 0 404 482">
    <g transform="translate(-77 -2040)">
        <rect width="344" height="406" fill="#eee" rx="22" transform="translate(137 2098)"/>
        <circle cx="58" cy="58" r="58" fill="#749b3f" transform="translate(251 2040)"/>
        <text fill="#749b3f" font-family="SegoeUI-Bold, Segoe UI" font-size="20px" font-weight="700" transform="translate(309 2208)">
            <tspan x="-82.124" y="0">OUR EXPERIENCE</tspan>
        </text>
        <text fill="#595858" font-family="SegoeUI, Segoe UI" font-size="17px" transform="translate(161 2237)">
            <tspan x="40.216" y="18">To date, we have successfully </tspan><tspan x="4.535" y="40">completed over 200 projects including </tspan><tspan x="19.373" y="62">data-driven websites, e-commerce </tspan><tspan x="8.051" y="84">websites, intranets, extranets, content </tspan><tspan x="14.164" y="106">management systems, database-to-</tspan><tspan x="18.252" y="128">print publishing systems, customer </tspan><tspan x="2.278" y="150">relationship management systems, and </tspan><tspan x="35.593" y="172">other custom database-driven </tspan><tspan x="20.033" y="194">solutions &amp; also trained over 5000 </tspan><tspan x="21.436" y="216">individuals, Corporates &amp; working </tspan><tspan x="101.173" y="238">professional.</tspan>
        </text>
        <g>
            <g>
                <g>
                    <path fill="#fff" d="M24.892 27.17h-7.247a3.914 3.914 0 1 0 0 1.123h7.241a12.054 12.054 0 0 0 1.342 4.995l-6.261 3.617a3.959 3.959 0 1 0 .549.98l6.274-3.625A12.083 12.083 0 0 0 33 39.154l.031 8.339-1.164-1.159a4.25 4.25 0 0 0-5.986.032c-1.767 1.8-.836 4.057-.155 5.708l3.9 9.423a14.749 14.749 0 0 0 3.5 5.063 1.113 1.113 0 0 0-.305.759v7.117a1.123 1.123 0 0 0 1.123 1.123h19.407a1.123 1.123 0 0 0 1.123-1.123V67.32a1.11 1.11 0 0 0-.8-1.057 14.74 14.74 0 0 0 4.351-10.483l-.033-6.858a3.746 3.746 0 0 0-5.834-3.092v-.951a3.741 3.741 0 0 0-5.942-3.013 3.733 3.733 0 0 0-5.7-2.194V39.3a12.026 12.026 0 0 0 6.654-5.027l6.25 3.607a3.868 3.868 0 1 0 .551-.979L47.72 33.3a12.092 12.092 0 0 0 1.331-5.006h7.237a3.911 3.911 0 1 0 0-1.123h-7.241a12.009 12.009 0 0 0-1.333-4.993l6.254-3.613a3.959 3.959 0 1 0-.549-.98l-6.269 3.621a12.188 12.188 0 0 0-3.656-3.656l3.615-6.257a3.952 3.952 0 1 0-.967-.571l-3.619 6.264a12.013 12.013 0 0 0-4.992-1.332V8.413a3.913 3.913 0 1 0-1.123 0v7.241a12.009 12.009 0 0 0-5 1.336l-3.613-6.269a3.873 3.873 0 1 0-.966.572l3.609 6.262a12.184 12.184 0 0 0-3.651 3.656l-6.27-3.622a3.875 3.875 0 1 0-.552.978l6.258 3.615a12.011 12.011 0 0 0-1.331 4.988zm-6.883 14.083a2.286 2.286 0 0 1-3.043-.816 2.228 2.228 0 1 1 3.043.816zm40.144-3.859a2.23 2.23 0 0 1 .815 3.043 2.286 2.286 0 0 1-3.043.816 2.228 2.228 0 1 1 2.227-3.859zm-2.228-23.177a2.228 2.228 0 0 1 2.228 3.859 2.287 2.287 0 0 1-3.043-.816 2.231 2.231 0 0 1 .815-3.043zm-9.3-7.667a2.228 2.228 0 1 1 3.859 2.227 2.286 2.286 0 0 1-3.043.815 2.226 2.226 0 0 1-.815-3.043zM23.449 8.777a2.228 2.228 0 1 1 3.043.815 2.23 2.23 0 0 1-3.043-.815zm-7.668 9.3a2.228 2.228 0 1 1 3.043-.816 2.287 2.287 0 0 1-3.043.815zM13.79 29.963a2.228 2.228 0 1 1 2.227-2.228 2.231 2.231 0 0 1-2.227 2.228zm26.683 1.553a3.773 3.773 0 0 0-3.794-3.744l-.213.005a3.831 3.831 0 0 0-3.494 3.923v.351a5.9 5.9 0 1 1 7.5.4zm11.755 41.8H35.06v-4.873h17.168v4.871zm-11.71-30.525a2.061 2.061 0 1 1 4.121-.007l.012 2.134a.842.842 0 0 0 .842.838.842.842 0 0 0 .841-.842 2.066 2.066 0 0 1 4.133-.03l.022 4.054a.842.842 0 0 0 .842.838.893.893 0 0 0 .842-.842 2.066 2.066 0 0 1 4.133 0l.033 6.85A13.078 13.078 0 0 1 51.223 66.2H35.314a13.048 13.048 0 0 1-4.136-5.345l-3.9-9.42c-.821-1.992-1.045-3.025-.211-3.874a2.564 2.564 0 0 1 3.61-.026l2.605 2.594a.843.843 0 0 0 1.437-.6l-.063-17.839a2.172 2.172 0 0 1 1.907-2.23h.115a2.088 2.088 0 0 1 2.11 2.063l.045 11.272a.842.842 0 0 0 .842.84.842.842 0 0 0 .843-.844zm19.627-17.284a2.228 2.228 0 1 1-2.228 2.228 2.23 2.23 0 0 1 2.228-2.228zM34.739 4.558a2.228 2.228 0 1 1 2.228 2.228 2.231 2.231 0 0 1-2.228-2.228zm2.23 12.752A10.424 10.424 0 0 1 40.5 37.54l-.018-3.756a7.015 7.015 0 1 0-7.506-.3l.013 3.874a10.42 10.42 0 0 1 3.98-20.048z" transform="translate(272.122 2060.355) translate(9.878 .645) translate(-9.878 -.645)"/>
                </g>
            </g>
        </g>
        <g>
            <g>
                <g>
                    <path fill="#749b3f" fill-rule="evenodd" d="M141-605.5v16a.5.5 0 0 0 .5.5h3a.5.5 0 0 0 .5-.5V-602h12.5a.5.5 0 0 0 .5-.5v-3a.5.5 0 0 0-.5-.5h-16a.5.5 0 0 0-.5.5z" transform="rotate(90 -1092.5 1194.023) translate(-135 -585) rotate(-135 396.993 0)"/>
                </g>
            </g>
        </g>
    </g>
</svg>
