<svg xmlns="http://www.w3.org/2000/svg" width="54" height="54" viewBox="0 0 54 54">
    <defs>
        <style>
            .cls-2{fill:#fff}
        </style>
    </defs>
    <g id="Group_149" transform="translate(-793 -1739)">
        <circle id="Ellipse_49" cx="27" cy="27" r="27" fill="#a818d1" transform="translate(793 1739)"/>
        <g id="noun_Certificate_2045859" transform="translate(804.349 1750.457)">
            <g id="Group_124">
                <path id="Path_382" d="M9.308 77.084l-.858.156a1.883 1.883 0 0 1-1.925-.832l-.13-.208L4.6 79.946l1.717-.078 1.015 1.379 1.977-4.162z" class="cls-2" transform="translate(-4.021 -57.704)"/>
                <path id="Path_383" d="M30.529 77l-.65.6a1.936 1.936 0 0 1-1.327.52H28.5l1.769 3.668 1.015-1.379L33 80.49l-1.717-3.59z" class="cls-2" transform="translate(-21.703 -58.222)"/>
                <path id="Path_384" d="M3.238 41.15a1.094 1.094 0 0 0 .676.989l1.041.442.624.936a1.075 1.075 0 0 0 1.093.468l1.119-.185 1.041.442A1.134 1.134 0 0 0 10 44.037l.832-.754 1.119-.182a1.162 1.162 0 0 0 .884-.806l.286-1.093.832-.754a1.1 1.1 0 0 0 .312-1.145l-.338-1.067.286-1.093a1.072 1.072 0 0 0-.364-1.119l-.858-.7-.338-1.067a1.093 1.093 0 0 0-.91-.754l-1.223-.208-.858-.7a1.07 1.07 0 0 0-1.171-.13l-1.015.494-1.119-.13a1.119 1.119 0 0 0-1.067.52l-.572.962-1.011.489a1.1 1.1 0 0 0-.624 1.015l.026 1.119-.572.962a1.108 1.108 0 0 0 .026 1.2l.624.936zm5.073-6.685a3.85 3.85 0 1 1-3.85 3.85 3.841 3.841 0 0 1 3.85-3.851z" class="cls-2" transform="translate(-2.373 -25.256)"/>
                <path id="Path_385" d="M18.5 52.24a.5.5 0 0 0 .728 0l2.055-2.055a.515.515 0 1 0-.728-.728l-1.691 1.691-.676-.676a.515.515 0 0 0-.728.728z" class="cls-2" transform="translate(-13.417 -37.802)"/>
                <path id="Path_386" d="M77.26 85.435a3.258 3.258 0 0 1 1.431.624 4.863 4.863 0 0 0 1.379.676 6.487 6.487 0 0 0 3.512-.1.5.5 0 0 0-.286-.962 5.258 5.258 0 0 1-2.966.078 5.07 5.07 0 0 1-1.119-.572 4.075 4.075 0 0 0-1.951-.78 2.142 2.142 0 0 0-1.639.676 2.026 2.026 0 0 0-.546 1.587.507.507 0 0 0 .494.468h.052a.478.478 0 0 0 .442-.546 1.069 1.069 0 0 1 .286-.806 1.288 1.288 0 0 1 .911-.343z" class="cls-2" transform="translate(-56.157 -63.766)"/>
                <path id="Path_387" d="M46.586 67.786l-.208.754c-.026.078-.052.182-.078.26h7.752a.65.65 0 1 0 0-1.3h-7.18z" class="cls-2" transform="translate(-34.873 -51.268)"/>
                <path id="Path_388" d="M65.954 50.95a.644.644 0 0 0-.65-.65H51.36a1.757 1.757 0 0 1-.052.364l-.208.754.052.156h14.177a.633.633 0 0 0 .625-.624z" class="cls-2" transform="translate(-38.424 -38.542)"/>
                <path id="Path_389" d="M58.127 33H41.4a2.258 2.258 0 0 1 1.119 1.275h15.634A.638.638 0 1 0 58.127 33z" class="cls-2" transform="translate(-31.248 -25.742)"/>
                <path id="Path_390" d="M46.718 5.1H21.8a1.21 1.21 0 0 0-1.2 1.2v5.3l.156.026.7-.338a2.257 2.257 0 0 1 1.535-.156V7.493h22.5v25.832h-22.5V28.33l-1.2-2.5-1.2 2.523v6.191a1.193 1.193 0 0 0 1.2 1.2h24.927a1.21 1.21 0 0 0 1.2-1.2V6.3a1.21 1.21 0 0 0-1.2-1.2z" class="cls-2" transform="translate(-15.859 -5.1)"/>
            </g>
        </g>
    </g>
</svg>
