<svg xmlns="http://www.w3.org/2000/svg" width="53.459" height="53.459" viewBox="0 0 53.459 53.459">
    <defs>
        <style>
            .cls-1{fill:#fff}
        </style>
    </defs>
    <g id="Group_148" transform="translate(-793.208 -1602.045)">
        <g id="noun_abilities_2019436" transform="translate(804.152 1608.804)">
            <g id="Group_123">
                <g id="Group_113" transform="translate(20.158 10.659)">
                    <path id="Path_372" d="M51.23 22.3a1.935 1.935 0 0 0-1.411.554 2.185 2.185 0 0 0-.655 1.512V28.5a2.013 2.013 0 0 0-1.814.5l-4.939 4.939A4.8 4.8 0 0 0 41 37.368v1.26h7.962l3.376-3.276a2.364 2.364 0 0 0 .756-1.764v-9.323A1.948 1.948 0 0 0 51.23 22.3z" class="cls-1" transform="translate(-41 -22.3)"/>
                </g>
                <g id="Group_114" transform="translate(0 10.659)">
                    <path id="Path_373" d="M5.132 38.628h7.962v-1.26a4.8 4.8 0 0 0-1.411-3.427L6.745 29a1.885 1.885 0 0 0-1.814-.5v-4.134a2.185 2.185 0 0 0-.655-1.512 2.069 2.069 0 0 0-1.411-.554A1.948 1.948 0 0 0 1 24.265v9.323a2.364 2.364 0 0 0 .756 1.764l3.376 3.276z" class="cls-1" transform="translate(-1 -22.3)"/>
                </g>
                <g id="Group_115" transform="translate(19.553 27.994)">
                    <path id="Path_374" d="M48.468 56.7H40.3a.476.476 0 0 0-.5.5v3.074a.5.5 0 1 0 1.008 0v-2.57h7.156v2.57a.5.5 0 1 0 1.008 0V57.2a.5.5 0 0 0-.504-.5z" class="cls-1" transform="translate(-39.8 -56.7)"/>
                </g>
                <g id="Group_116" transform="translate(26.104 29.154)">
                    <path id="Path_375" d="M53.3 59a.476.476 0 0 0-.5.5v.756a.5.5 0 1 0 1.008 0V59.5a.5.5 0 0 0-.508-.5z" class="cls-1" transform="translate(-52.8 -59)"/>
                </g>
                <g id="Group_117" transform="translate(24.592 29.154)">
                    <path id="Path_376" d="M50.3 59a.476.476 0 0 0-.5.5v.756a.5.5 0 1 0 1.008 0V59.5a.476.476 0 0 0-.508-.5z" class="cls-1" transform="translate(-49.8 -59)"/>
                </g>
                <g id="Group_118" transform="translate(3.528 27.994)">
                    <path id="Path_377" d="M16.668 56.7H8.5a.476.476 0 0 0-.5.5v3.074a.5.5 0 0 0 1.008 0v-2.57h7.156v2.57a.5.5 0 0 0 1.008 0V57.2a.476.476 0 0 0-.504-.5z" class="cls-1" transform="translate(-8 -56.7)"/>
                </g>
                <g id="Group_119" transform="translate(5.14 29.154)">
                    <path id="Path_378" d="M11.7 59a.476.476 0 0 0-.5.5v.756a.5.5 0 1 0 1.008 0V59.5a.476.476 0 0 0-.508-.5z" class="cls-1" transform="translate(-11.2 -59)"/>
                </g>
                <g id="Group_120" transform="translate(6.652 29.154)">
                    <path id="Path_379" d="M14.7 59a.476.476 0 0 0-.5.5v.756a.5.5 0 1 0 1.008 0V59.5a.5.5 0 0 0-.508-.5z" class="cls-1" transform="translate(-14.2 -59)"/>
                </g>
                <g id="Group_121" transform="translate(16.63)">
                    <path id="Path_380" d="M39.695 19.72c.1-.151.2-.353.3-.5a3.589 3.589 0 0 0-3.578-3.376.5.5 0 0 1 0-1.008A4.672 4.672 0 0 1 40.5 17.3a3.291 3.291 0 0 0 1.411-1.562 3.858 3.858 0 0 0-2.419-2.923.51.51 0 1 1 .353-.957 5 5 0 0 1 2.419 2.016 3.135 3.135 0 0 0 .151-5.291 6.608 6.608 0 0 1-1.615 1.512.61.61 0 0 1-.756-.151.5.5 0 0 1 .151-.706 5.5 5.5 0 0 0 1.865-2.016A3.1 3.1 0 0 0 40.6 5a4.2 4.2 0 0 1-3.477 1.865.5.5 0 1 1 0-1.008 3.087 3.087 0 0 0 3.024-2.318 3.117 3.117 0 0 0-6.147.71v13.657a3.137 3.137 0 0 0 5.695 1.814zm1.005-8.97a.5.5 0 1 1 0 .706.487.487 0 0 1 0-.706zm-4.485-6.5l.957-.907a.5.5 0 1 1 .706.706l-.957.907a.5.5 0 0 1-.706-.706zm.3 4.384a1.968 1.968 0 0 1 1.97 1.966.5.5 0 0 1-1.008 0 .957.957 0 0 0-.957-.957.476.476 0 0 1-.5-.5.542.542 0 0 1 .5-.51zm-1.205 3.174a.476.476 0 0 1 .5-.5 1.968 1.968 0 0 1 1.97 1.962.5.5 0 0 1-1.008 0 .957.957 0 0 0-.957-.957.476.476 0 0 1-.505-.505zm.907 6.9a.487.487 0 0 1 0-.706l.957-.907a.5.5 0 1 1 .706.706l-.957.907a.486.486 0 0 1-.706.004z" class="cls-1" transform="translate(-34 -1.149)"/>
                </g>
                <g id="Group_122" transform="translate(5.826)">
                    <path id="Path_381" d="M16.159 3.543a3.189 3.189 0 0 0 3.024 2.318.5.5 0 0 1 0 1.008A4.2 4.2 0 0 1 15.705 5a3.006 3.006 0 0 0-1.461 2.217 5.5 5.5 0 0 0 1.865 2.016.51.51 0 1 1-.554.857 5.77 5.77 0 0 1-1.613-1.512 3.135 3.135 0 0 0 .151 5.291 4.788 4.788 0 0 1 2.419-2.016.524.524 0 0 1 .655.3.484.484 0 0 1-.3.655 3.96 3.96 0 0 0-2.419 2.923 2.714 2.714 0 0 0 1.408 1.569 4.612 4.612 0 0 1 4.082-2.469.5.5 0 0 1 0 1.008 3.589 3.589 0 0 0-3.578 3.376c.1.151.2.353.3.5a3.137 3.137 0 0 0 5.695-1.814V4.249a3.145 3.145 0 0 0-6.196-.706zm-.5 7.912a.5.5 0 1 1 0-.706.487.487 0 0 1-.004.706zm4.485 7.257a.487.487 0 0 1-.706 0l-.957-.907a.5.5 0 1 1 .706-.706l.957.907a.487.487 0 0 1-.004.706zm-.71-13.758l-.957-.854a.5.5 0 1 1 .706-.706l.957.907a.487.487 0 0 1 0 .706.542.542 0 0 1-.706-.053zM17.872 10.6a1.968 1.968 0 0 1 1.965-1.965.5.5 0 1 1 0 1.008.957.957 0 0 0-.957.957.5.5 0 1 1-1.008 0zm2.671 1.713a.927.927 0 0 0-.957.957.5.5 0 0 1-1.008 0 2 2 0 0 1 1.965-1.97.5.5 0 0 1 .5.5.476.476 0 0 1-.5.512z" class="cls-1" transform="translate(-12.561 -1.149)"/>
                </g>
            </g>
        </g>
        <path id="Path_399" fill="#0d8ce1" d="M26.73 0A26.73 26.73 0 1 1 0 26.73 26.73 26.73 0 0 1 26.73 0z" transform="translate(793.208 1602.045)"/>
        <g id="noun_abilities_2019436-2" transform="translate(804.349 1612.813)">
            <g id="Group_123-2">
                <g id="Group_113-2" transform="translate(20.062 10.608)">
                    <path id="Path_372-2" d="M51.181 22.3a1.926 1.926 0 0 0-1.4.552 2.174 2.174 0 0 0-.652 1.5v4.113a2 2 0 0 0-1.806.5L42.4 33.886A4.777 4.777 0 0 0 41 37.3v1.25h7.924l3.36-3.26a2.353 2.353 0 0 0 .752-1.755v-9.279a1.939 1.939 0 0 0-1.855-1.956z" class="cls-1" transform="translate(-41 -22.3)"/>
                </g>
                <g id="Group_114-2" transform="translate(0 10.608)">
                    <path id="Path_373-2" d="M5.113 38.55h7.924V37.3a4.777 4.777 0 0 0-1.4-3.41l-4.919-4.919a1.876 1.876 0 0 0-1.806-.5v-4.115a2.174 2.174 0 0 0-.652-1.5 2.059 2.059 0 0 0-1.4-.552A1.939 1.939 0 0 0 1 24.256v9.279a2.353 2.353 0 0 0 .752 1.755l3.36 3.26z" class="cls-1" transform="translate(-1 -22.3)"/>
                </g>
                <g id="Group_115-2" transform="translate(19.46 27.861)">
                    <path id="Path_374-2" d="M48.427 56.7H40.3a.474.474 0 0 0-.5.5v3.059a.5.5 0 0 0 1 0V57.7h7.122v2.558a.5.5 0 0 0 1 0V57.2a.5.5 0 0 0-.495-.5z" class="cls-1" transform="translate(-39.8 -56.7)"/>
                </g>
                <g id="Group_116-2" transform="translate(25.98 29.015)">
                    <path id="Path_375-2" d="M53.3 59a.474.474 0 0 0-.5.5v.752a.5.5 0 1 0 1 0V59.5a.5.5 0 0 0-.5-.5z" class="cls-1" transform="translate(-52.8 -59)"/>
                </g>
                <g id="Group_117-2" transform="translate(24.475 29.015)">
                    <path id="Path_376-2" d="M50.3 59a.474.474 0 0 0-.5.5v.752a.5.5 0 1 0 1 0V59.5a.474.474 0 0 0-.5-.5z" class="cls-1" transform="translate(-49.8 -59)"/>
                </g>
                <g id="Group_118-2" transform="translate(3.511 27.861)">
                    <path id="Path_377-2" d="M16.627 56.7H8.5a.474.474 0 0 0-.5.5v3.059a.5.5 0 0 0 1 0V57.7h7.122v2.558a.5.5 0 0 0 1 0V57.2a.474.474 0 0 0-.495-.5z" class="cls-1" transform="translate(-8 -56.7)"/>
                </g>
                <g id="Group_119-2" transform="translate(5.116 29.015)">
                    <path id="Path_378-2" d="M11.7 59a.474.474 0 0 0-.5.5v.752a.5.5 0 1 0 1 0V59.5a.474.474 0 0 0-.5-.5z" class="cls-1" transform="translate(-11.2 -59)"/>
                </g>
                <g id="Group_120-2" transform="translate(6.62 29.015)">
                    <path id="Path_379-2" d="M14.7 59a.474.474 0 0 0-.5.5v.752a.5.5 0 1 0 1 0V59.5a.5.5 0 0 0-.5-.5z" class="cls-1" transform="translate(-14.2 -59)"/>
                </g>
                <g id="Group_121-2" transform="translate(16.551)">
                    <path id="Path_380-2" d="M39.667 19.632c.1-.15.2-.351.3-.5a3.572 3.572 0 0 0-3.561-3.36.5.5 0 1 1 0-1 4.65 4.65 0 0 1 4.062 2.458 3.275 3.275 0 0 0 1.4-1.555 3.84 3.84 0 0 0-2.407-2.909.508.508 0 1 1 .351-.953 4.981 4.981 0 0 1 2.407 2.006 3.12 3.12 0 0 0 .15-5.266 6.577 6.577 0 0 1-1.6 1.5.607.607 0 0 1-.752-.15.493.493 0 0 1 .15-.7 5.474 5.474 0 0 0 1.856-2.006 3.086 3.086 0 0 0-1.453-2.211 4.184 4.184 0 0 1-3.46 1.856.5.5 0 0 1 0-1 3.072 3.072 0 0 0 3.009-2.307 3.1 3.1 0 0 0-6.119.7v13.591a3.123 3.123 0 0 0 5.667 1.806zm1-8.927a.5.5 0 1 1 0 .7.485.485 0 0 1 .004-.705zm-4.464-6.47l.953-.9a.5.5 0 1 1 .7.7l-.953.9a.5.5 0 0 1-.7-.7zm.3 4.363a1.958 1.958 0 0 1 1.956 1.956.5.5 0 1 1-1 0 .952.952 0 0 0-.953-.953.474.474 0 0 1-.5-.5.539.539 0 0 1 .502-.501zm-1.2 3.16a.474.474 0 0 1 .5-.5 1.958 1.958 0 0 1 1.956 1.956.5.5 0 0 1-1 0 .952.952 0 0 0-.953-.953.474.474 0 0 1-.506-.504zm.9 6.871a.485.485 0 0 1 0-.7l.953-.9a.5.5 0 1 1 .7.7l-.953.9a.484.484 0 0 1-.696-.001z" class="cls-1" transform="translate(-34 -1.149)"/>
                </g>
                <g id="Group_122-2" transform="translate(5.799)">
                    <path id="Path_381-2" d="M16.142 3.532a3.174 3.174 0 0 0 3.009 2.307.5.5 0 0 1 0 1 4.184 4.184 0 0 1-3.461-1.853 2.991 2.991 0 0 0-1.454 2.207A5.474 5.474 0 0 0 16.092 9.2a.508.508 0 0 1-.552.853 5.742 5.742 0 0 1-1.6-1.5 3.12 3.12 0 0 0 .15 5.266 4.766 4.766 0 0 1 2.407-2.006.522.522 0 0 1 .652.3.482.482 0 0 1-.3.652 3.941 3.941 0 0 0-2.407 2.909 2.7 2.7 0 0 0 1.4 1.555 4.59 4.59 0 0 1 4.058-2.462.5.5 0 0 1 0 1 3.572 3.572 0 0 0-3.561 3.36c.1.15.2.351.3.5a3.123 3.123 0 0 0 5.667-1.806V4.234a3.13 3.13 0 0 0-6.164-.702zm-.5 7.874a.5.5 0 1 1 0-.7.485.485 0 0 1-.002.7zm4.458 7.222a.485.485 0 0 1-.7 0l-.953-.9a.5.5 0 0 1 .7-.7l.953.9a.485.485 0 0 1 0 .7zm-.7-13.692l-.953-.853a.5.5 0 1 1 .7-.7l.953.9a.485.485 0 0 1 0 .7.539.539 0 0 1-.7-.047zm-1.555 5.617A1.958 1.958 0 0 1 19.8 8.6a.5.5 0 0 1 0 1 .952.952 0 0 0-.953.953.5.5 0 1 1-1 0zm2.658 1.705a.922.922 0 0 0-.953.953.5.5 0 1 1-1 0 1.992 1.992 0 0 1 1.956-1.956.5.5 0 0 1 .5.5.474.474 0 0 1-.501.504z" class="cls-1" transform="translate(-12.561 -1.149)"/>
                </g>
            </g>
        </g>
    </g>
</svg>
