<svg xmlns="http://www.w3.org/2000/svg" width="344" height="528" viewBox="0 0 344 528">
    <defs>
        <style>
            .cls-5{fill:#fff}
        </style>
    </defs>
    <g id="Group_173" transform="translate(-547 -1771)">
        <rect id="Rectangle_278" width="344" height="406" fill="#eee" rx="22" transform="translate(547 1829)"/>
        <circle id="Ellipse_61" cx="58" cy="58" r="58" fill="#749b3f" transform="translate(661 1771)"/>
        <text id="Focused_on_Specialized_Technical_Training_in_All_Verticals" fill="#749b3f" font-family="SegoeUI-Bold, Segoe UI" font-size="20px" font-weight="700" transform="translate(719 1935)">
            <tspan x="-126.113" y="0">FOCUSED ON SPECIALIZED</tspan><tspan x="-145.322" y="27"> TECHNICAL TRAINING IN ALL </tspan><tspan x="-51.338" y="54">VERTICALS</tspan>
        </text>
        <text id="We_concenter_our_training_to_develop_the_industry-demanded_technical_skills_for_all_verticals_rather_than_sticking_to_topic-specific_training_deliveries._We_invest_dedicated_efforts_to_add_rich_value_to_your_technical_training_experience_and_your_profile_f" fill="#595858" font-family="SegoeUI, Segoe UI" font-size="17px" transform="translate(571 2014)">
            <tspan x="8.113" y="18">We concenter our training to develop </tspan><tspan x="4.523" y="40">the industry-demanded technical skills </tspan><tspan x="9.537" y="62">for all verticals rather than sticking to </tspan><tspan x="13.646" y="84">topic-specific training deliveries. We </tspan><tspan x="17.754" y="106">invest dedicated efforts to add rich </tspan><tspan x="32.613" y="128">value to your technical training </tspan><tspan x="2.933" y="150">experience and your profile for making </tspan><tspan x=".472" y="172">you the best fit for the corporate world.</tspan>
        </text>
        <g id="noun_Recruitment_2358474" transform="translate(679.338 1790.998)">
            <g id="Group_170" transform="translate(2.662 1.002)">
                <path id="Path_777" d="M32.171 63.343a30.93 30.93 0 0 0 13.293-3.018l13.39 13.39a7.539 7.539 0 0 0 10.653 0l4.2-4.215a7.5 7.5 0 0 0 0-10.639l-13.384-13.4a31.146 31.146 0 1 0-28.152 17.882zm39.335-2.275a4.383 4.383 0 0 1 0 6.22l-4.2 4.219a4.511 4.511 0 0 1-6.237 0l-12.73-12.73A31.357 31.357 0 0 0 58.78 48.326zM32.171 4.124A28.049 28.049 0 1 1 4.122 32.173 28.081 28.081 0 0 1 32.171 4.124z" class="cls-5" transform="translate(-1 -1.002)"/>
                <path id="Path_778" d="M24.027 28.483c4.712 0 8.545-4.8 8.545-10.693 0-5.5-3.353-9.057-8.545-9.057s-8.547 3.555-8.547 9.057c0 5.896 3.834 10.693 8.547 10.693zm0-16.628c3.4 0 5.423 2.219 5.423 5.935 0 4.175-2.433 7.571-5.423 7.571S18.6 21.965 18.6 17.79c0-3.717 2.029-5.935 5.427-5.935z" class="cls-5" transform="translate(7.121 3.334)"/>
                <path id="Path_779" d="M12.228 39.063h30.81a3.136 3.136 0 0 0 3.132-3.133V31.2a5.1 5.1 0 0 0-3.033-4.686c-10.124-4.984-20.649-4.96-30.94-.033a5.135 5.135 0 0 0-3.1 4.719v4.73a3.137 3.137 0 0 0 3.131 3.133zm-.012-7.863a2.044 2.044 0 0 1 1.274-1.879 32.96 32.96 0 0 1 14.247-3.443 31.755 31.755 0 0 1 14.092 3.468 2.018 2.018 0 0 1 1.219 1.854l-.008 4.741-30.822-.011V31.2z" class="cls-5" transform="translate(3.539 11.212)"/>
            </g>
        </g>
    </g>
</svg>
