<svg xmlns="http://www.w3.org/2000/svg" width="54" height="53" viewBox="0 0 54 53">
    <g transform="translate(-793 -1876)">
        <ellipse cx="27" cy="26.5" fill="#e2307a" rx="27" ry="26.5" transform="translate(793 1876)"/>
        <g>
            <path fill="#fff" d="M19.529 9.544a3.946 3.946 0 0 1-.224-.9 6.081 6.081 0 0 1 0-2.843 6.276 6.276 0 0 1 1.683-2.918 7.118 7.118 0 0 1 1.534-1.272 6.308 6.308 0 0 1 1.5-.786 5.37 5.37 0 0 1 1.342-.259 5.847 5.847 0 0 1 3.4.711 4.6 4.6 0 0 1 1.683 1.534s2.768.187 1.833 5.8a7.871 7.871 0 0 1-.224.9c.561-.037 1.2.262.6 2.431-.449 1.571-.86 2.02-1.2 2.057a6.89 6.89 0 0 1-4.152 5.125 4.671 4.671 0 0 1-3.03 0A6.81 6.81 0 0 1 20.127 14c-.3-.037-.748-.486-1.2-2.057-.595-2.1.041-2.436.602-2.399zm-.711 13.99a7.9 7.9 0 0 1 1.833 8.342l.112.112a29.345 29.345 0 0 0 5.05.411c8.192 0 13.092-3.18 13.092-3.18.15-.86.3-2.806.3-2.806.112-1.421-.037-4.339-2.544-4.975a21.117 21.117 0 0 1-6.1-2.768l-2.13 6.73-.411 1.272-.337 1.085-1.122-3.18c2.768-3.853-.561-3.815-.748-3.815s-3.516-.037-.748 3.815l-1.122 3.18-.374-1.122-.412-1.235-2.132-6.771A20.686 20.686 0 0 1 15 21.4a7.944 7.944 0 0 1 3.818 2.134zm-1.384 1.384a6.006 6.006 0 0 1 .86 7.369l2.843 2.843a1.4 1.4 0 0 1-1.983 1.983l-2.842-2.843a6 6 0 1 1 1.122-9.352zm-6.958 1.534a3.809 3.809 0 1 0 5.387 0 3.793 3.793 0 0 0-5.387 0z" transform="translate(804.349 1882.823) translate(-7.175 -.546)"/>
        </g>
    </g>
</svg>
