<svg xmlns="http://www.w3.org/2000/svg" width="343" height="482" viewBox="0 0 343 482">
    <defs>
        <style>
            .cls-5{fill:#fff}
        </style>
    </defs>
    <g id="Group_177" transform="translate(-888 -2040)">
        <rect id="Rectangle_271" width="343" height="406" fill="#eee" rx="22" transform="translate(888 2098)"/>
        <ellipse id="Ellipse_60" cx="57.5" cy="58" fill="#749b3f" rx="57.5" ry="58" transform="translate(1002 2040)"/>
        <text id="Business_savvy" fill="#749b3f" font-family="SegoeUI-Bold, Segoe UI" font-size="20px" font-weight="700" transform="translate(1060 2208)">
            <tspan x="-81.104" y="0">BUSINESS SAVVY</tspan>
        </text>
        <text id="We_design_evaluate_and_justify_technology_solutions_from_a_thorough_understanding_of_the_business_benefit_for_your_company." fill="#595858" font-family="SegoeUI, Segoe UI" font-size="17px" transform="translate(911 2237)">
            <tspan x="32.671" y="18">We design, evaluate and justify </tspan><tspan x="5.909" y="40">technology solutions from a thorough </tspan><tspan x="6.644" y="62">understanding of the business benefit </tspan><tspan x="80.073" y="84">for your company.</tspan>
        </text>
        <g id="noun_Business_2603852" transform="translate(1017.94 2030.506)">
            <g id="Group_167" transform="translate(3.06 30.494)">
                <g id="Group_166">
                    <g id="Group_153" transform="translate(28.756 3.024)">
                        <path id="Path_764" d="M209.585 69.171a9.585 9.585 0 1 1 9.585-9.585 9.6 9.6 0 0 1-9.585 9.585zm0-15.976a6.39 6.39 0 1 0 6.39 6.39 6.4 6.4 0 0 0-6.39-6.385z" class="cls-5" transform="translate(-200 -50)"/>
                    </g>
                    <g id="Group_154" transform="translate(20.768 20.598)">
                        <path id="Path_765" d="M177.159 214.317h-19.171a1.6 1.6 0 0 1-1.6-1.6v-17.844a4.793 4.793 0 0 1-6.39-4.519v-22.366a8 8 0 0 1 7.99-7.988h19.171a8 8 0 0 1 7.988 7.988v22.366a4.793 4.793 0 0 1-6.39 4.519v17.847a1.6 1.6 0 0 1-1.598 1.597zm-17.573-3.2h15.976v-20.763a1.6 1.6 0 0 1 3.2 0 1.6 1.6 0 0 0 3.2 0v-22.366a4.8 4.8 0 0 0-4.793-4.793h-19.181a4.8 4.8 0 0 0-4.793 4.793v22.366a1.6 1.6 0 0 0 3.2 0 1.6 1.6 0 0 1 3.2 0z" class="cls-5" transform="translate(-150 -160)"/>
                    </g>
                    <g id="Group_155" transform="translate(36.744 50.951)">
                        <path id="Path_766" d="M251.6 373.963a1.6 1.6 0 0 1-1.6-1.6V351.6a1.6 1.6 0 0 1 3.2 0v20.768a1.6 1.6 0 0 1-1.6 1.595z" class="cls-5" transform="translate(-250 -350)"/>
                    </g>
                    <g id="Group_156" transform="translate(46.329 28.585)">
                        <path id="Path_767" d="M311.6 233.963a1.6 1.6 0 0 1-1.6-1.6V211.6a1.6 1.6 0 0 1 3.2 0v20.768a1.6 1.6 0 0 1-1.6 1.595z" class="cls-5" transform="translate(-310 -210)"/>
                    </g>
                    <g id="Group_157" transform="translate(54.317 10.373)">
                        <path id="Path_768" d="M367.988 111.976a7.988 7.988 0 1 1 7.988-7.988 8 8 0 0 1-7.988 7.988zm0-12.781a4.793 4.793 0 1 0 4.793 4.793 4.8 4.8 0 0 0-4.793-4.788z" class="cls-5" transform="translate(-360 -96)"/>
                    </g>
                    <g id="Group_158" transform="translate(52.72 24.432)">
                        <path id="Path_769" d="M367.573 234.483H351.6a1.6 1.6 0 0 1-1.6-1.6V208.6a1.6 1.6 0 1 1 3.2 0v22.685h12.781V208.6a1.6 1.6 0 1 1 3.2 0c0 .358.083.959.639.959a.96.96 0 0 0 .959-.959v-17.89a3.519 3.519 0 0 0-3.515-3.515h-15.347a1.6 1.6 0 0 1 0-3.2h15.337a6.717 6.717 0 0 1 6.71 6.71V208.6a4.158 4.158 0 0 1-4.154 4.154 4.038 4.038 0 0 1-.639-.05v20.179a1.6 1.6 0 0 1-1.598 1.6z" class="cls-5" transform="translate(-350 -184)"/>
                    </g>
                    <g id="Group_159" transform="translate(68.695 30.822)">
                        <path id="Path_770" d="M451.6 243.81a1.6 1.6 0 0 1-1.6-1.6V225.6a1.6 1.6 0 0 1 3.2 0v16.615a1.6 1.6 0 0 1-1.6 1.595z" class="cls-5" transform="translate(-450 -224)"/>
                    </g>
                    <g id="Group_160" transform="translate(6.39 10.373)">
                        <path id="Path_771" d="M67.988 111.976a7.988 7.988 0 1 1 7.988-7.988 8 8 0 0 1-7.988 7.988zm0-12.781a4.793 4.793 0 1 0 4.793 4.793 4.8 4.8 0 0 0-4.793-4.788z" class="cls-5" transform="translate(-60 -96)"/>
                    </g>
                    <g id="Group_161" transform="translate(0 24.432)">
                        <path id="Path_772" d="M42.366 234.483H26.39a1.6 1.6 0 0 1-1.6-1.6v-20.177a4.055 4.055 0 0 1-.639.05A4.158 4.158 0 0 1 20 208.6v-17.89a6.717 6.717 0 0 1 6.71-6.71h15.336a1.6 1.6 0 0 1 0 3.2H26.71a3.519 3.519 0 0 0-3.51 3.51v17.89a.96.96 0 0 0 .959.959c.556 0 .639-.6.639-.959a1.6 1.6 0 1 1 3.2 0v22.685h12.77V208.6a1.6 1.6 0 1 1 3.2 0v24.283a1.6 1.6 0 0 1-1.602 1.6z" class="cls-5" transform="translate(-20 -184)"/>
                    </g>
                    <g id="Group_162" transform="translate(4.793 30.822)">
                        <path id="Path_773" d="M51.6 243.81a1.6 1.6 0 0 1-1.6-1.6V225.6a1.6 1.6 0 0 1 3.2 0v16.615a1.6 1.6 0 0 1-1.6 1.595z" class="cls-5" transform="translate(-50 -224)"/>
                    </g>
                    <g id="Group_163" transform="translate(27.159 28.585)">
                        <path id="Path_774" d="M191.6 233.963a1.6 1.6 0 0 1-1.6-1.6V211.6a1.6 1.6 0 1 1 3.2 0v20.768a1.6 1.6 0 0 1-1.6 1.595z" class="cls-5" transform="translate(-190 -210)"/>
                    </g>
                    <g id="Group_164" transform="translate(0 71.72)">
                        <path id="Path_775" d="M95.086 483.2H21.6a1.6 1.6 0 1 1 0-3.2h73.486a1.6 1.6 0 1 1 0 3.2z" class="cls-5" transform="translate(-20 -480)"/>
                    </g>
                    <g id="Group_165" transform="translate(8.608)">
                        <path id="Rectangle_272" d="M0 0H3.209V3.209H0z" class="cls-5" transform="translate(2.139 3.209)"/>
                        <path id="Rectangle_273" d="M0 0H2.139V3.209H0z" class="cls-5"/>
                        <path id="Rectangle_274" d="M0 0H3.209V3.209H0z" class="cls-5" transform="translate(62.041 9.627)"/>
                        <path id="Rectangle_275" d="M0 0H3.209V3.209H0z" class="cls-5" transform="translate(58.832 6.418)"/>
                        <path id="Rectangle_276" d="M0 0H3.209V4.279H0z" class="cls-5" transform="translate(42.787 4.279)"/>
                        <path id="Rectangle_277" d="M0 0H3.209V3.209H0z" class="cls-5" transform="translate(11.766 9.627)"/>
                    </g>
                </g>
            </g>
        </g>
    </g>
</svg>
