<svg xmlns="http://www.w3.org/2000/svg" width="51" height="51" viewBox="0 0 51 51">
    <g transform="translate(-952 -105)">
        <circle cx="25.5" cy="25.5" r="25.5" fill="#fff" transform="translate(952 105)"/>
        <g>
            <g>
                <path d="M49.27 30A19.294 19.294 0 1 1 30 49.27 19.283 19.283 0 0 1 49.27 30zm-12.5 8.826L47.259 49.27 36.766 59.762l2.059 2.01L49.27 51.329l10.492 10.444 2.01-2.01L51.329 49.27l10.444-10.444-2.01-2.059L49.27 47.259 38.826 36.766zm12.5-7.845A18.313 18.313 0 1 0 67.608 49.27 18.289 18.289 0 0 0 49.27 30.981z" transform="translate(958.557 111.103) translate(-30 -30)"/>
            </g>
        </g>
    </g>
</svg>
