<svg xmlns="http://www.w3.org/2000/svg" width="54" height="54" viewBox="0 0 54 54">
    <defs>
        <style>
            .cls-2{fill:#fff}
        </style>
    </defs>
    <g id="Group_151" transform="translate(-793 -2013)">
        <circle id="Ellipse_51" cx="27" cy="27" r="27" fill="#fdaf05" transform="translate(793 2013)"/>
        <g id="noun_worldwide_education_2130882" transform="translate(804.349 2019.044)">
            <path id="Path_392" d="M33.525 22.464a10.161 10.161 0 1 0-10.162 10.16 10.173 10.173 0 0 0 10.162-10.16zm-1.257 0c0 .255-.017.505-.039.756-.6.958-2.294 1.857-4.744 2.347a23.054 23.054 0 0 0 0-6.207c2.45.492 4.144 1.392 4.744 2.348.022.249.039.5.039.756zm-.285-2.194a11.3 11.3 0 0 0-4.639-1.786 11.308 11.308 0 0 0-1.786-4.639 8.918 8.918 0 0 1 6.425 6.425zm-5.128 2.194a21.953 21.953 0 0 1-.237 3.255 22.533 22.533 0 0 1-6.508 0 22.458 22.458 0 0 1 0-6.51 22.445 22.445 0 0 1 6.508 0 21.924 21.924 0 0 1 .237 3.255zM22.607 13.6c.25-.021.5-.038.756-.038s.507.017.756.038c.96.6 1.859 2.294 2.349 4.745a23.26 23.26 0 0 0-6.207 0c.491-2.454 1.389-4.145 2.346-4.745zm-1.437.247a11.281 11.281 0 0 0-1.788 4.639 11.317 11.317 0 0 0-4.637 1.786 8.921 8.921 0 0 1 6.426-6.429zm-6.71 8.621c0-.255.017-.507.037-.757.6-.957 2.294-1.856 4.746-2.348a23.054 23.054 0 0 0 0 6.207c-2.451-.49-4.144-1.39-4.746-2.347-.02-.254-.037-.504-.037-.759zm.285 2.193a11.277 11.277 0 0 0 4.637 1.788 11.308 11.308 0 0 0 1.788 4.638 8.921 8.921 0 0 1-6.425-6.43zm9.373 6.673c-.248.02-.5.038-.756.038s-.505-.018-.756-.038c-.958-.6-1.857-2.294-2.347-4.746a23.157 23.157 0 0 0 6.207 0c-.49 2.447-1.388 4.143-2.347 4.741zm1.439-.247a11.282 11.282 0 0 0 1.786-4.638 11.313 11.313 0 0 0 4.639-1.788 8.921 8.921 0 0 1-6.424 6.422z" class="cls-2" transform="translate(-7.336 -1.67)"/>
            <path id="Path_393" d="M28.358 9.025V5.75l-3.1.769a6.629 6.629 0 0 1-1.547.162 6.677 6.677 0 0 1-1.546-.162l-3.1-.769v3.275a7.537 7.537 0 0 0 4.648 1.444 7.529 7.529 0 0 0 4.645-1.444z" class="cls-2" transform="translate(-7.682 -1.283)"/>
            <path id="Path_394" d="M14.2 3.778l7.773 1.928a6.985 6.985 0 0 0 2.829 0l5.031-1.248v1.71a.911.911 0 0 0-.391.984 4.534 4.534 0 0 1-.135 2.018 1.082 1.082 0 0 0 .482-.55 4.469 4.469 0 0 0 .36.969 4.469 4.469 0 0 0 .36-.969 1.09 1.09 0 0 0 .484.55 4.548 4.548 0 0 1-.135-2.018.911.911 0 0 0-.391-.984V4.3l2.108-.524c.777-.193.777-.509 0-.7L24.8 1.148a6.985 6.985 0 0 0-2.829 0L14.2 3.076c-.776.193-.776.509 0 .702z" class="cls-2" transform="translate(-7.361 -1.003)"/>
            <path id="Path_395" d="M21.66 38.58c0 1.4.987 2.816 2.2 2.816s2.2-1.415 2.2-2.816a2.2 2.2 0 1 0-4.406 0z" class="cls-2" transform="translate(-7.835 -3.087)"/>
            <path id="Path_396" d="M23.78 42.316s-3.744-.333-3.494 1.922c.072.635.141 1.528.208 2.482h6.574c.064-.954.136-1.847.206-2.482.251-2.254-3.494-1.922-3.494-1.922z" class="cls-2" transform="translate(-7.753 -3.439)"/>
            <path id="Path_397" d="M14.922 32.393a.525.525 0 0 0-.23-.193.553.553 0 0 0-.52.042.54.54 0 0 0-.151.752l1.4 2.108A14.939 14.939 0 0 1 15.5 9.3l-.546-.937a16.027 16.027 0 0 0 .237 27.864l-2.8.421a.541.541 0 0 0-.357.215.528.528 0 0 0-.1.4.548.548 0 0 0 .536.46l4.6-.686a.541.541 0 0 0 .371-.835z" class="cls-2" transform="translate(-6.969 -1.437)"/>
            <path id="Path_398" d="M36.655 12.069l2.7.621a.542.542 0 1 0 .242-1.057l-4.457-1.022a.542.542 0 0 0-.5.143.536.536 0 0 0-.149.5l.958 4.472a.532.532 0 0 0 .143.264.551.551 0 0 0 .388.162.565.565 0 0 0 .112-.011.544.544 0 0 0 .342-.235.535.535 0 0 0 .073-.409l-.548-2.565a14.95 14.95 0 0 1-5.689 23.165l.428 1a16.028 16.028 0 0 0 5.953-25.021zm-.671 3.8z" class="cls-2" transform="translate(-8.343 -1.569)"/>
        </g>
    </g>
</svg>
