<svg xmlns="http://www.w3.org/2000/svg" width="344" height="482" viewBox="0 0 344 482">
    <defs>
        <style>
            .cls-5{fill:#fff}
        </style>
    </defs>
    <g id="Group_176" transform="translate(-512 -2040)">
        <rect id="Rectangle_270" width="344" height="406" fill="#eee" rx="22" transform="translate(512 2098)"/>
        <circle id="Ellipse_59" cx="58" cy="58" r="58" fill="#749b3f" transform="translate(626 2040)"/>
        <text id="Our_Approach" fill="#749b3f" font-family="SegoeUI-Bold, Segoe UI" font-size="20px" font-weight="700" transform="translate(684 2208)">
            <tspan x="-78.062" y="0">OUR APPROACH</tspan>
        </text>
        <text id="To_us_it_does_not_just_work_-_we_take_pride_in_the_solutions_we_deliver._We_encourage_each_other_to_achieve_excellence_in_all_endeavors_and_aren_t_satisfied_until_projects_meet_our_own_personal_high_standards." fill="#595858" font-family="SegoeUI, Segoe UI" font-size="17px" transform="translate(536 2237)">
            <tspan x="11.512" y="18">To us, it does not just work - we take </tspan><tspan x="12.749" y="40">pride in the solutions we deliver. We </tspan><tspan x="25.964" y="62">encourage each other to achieve </tspan><tspan x="8.931" y="84">excellence in all endeavors and aren&apos;t </tspan><tspan x="11.973" y="106">satisfied until projects meet our own </tspan><tspan x="56.619" y="128">personal high standards.</tspan>
        </text>
        <g id="noun_approach_2457853" transform="translate(644 2058.87)">
            <path id="Path_762" d="M45 44.469l-1.271-2.2a6.191 6.191 0 1 0 8.454 8.454l-2.2-1.271A3.649 3.649 0 1 1 45 44.469z" class="cls-5" transform="translate(10.479 10.889)"/>
            <path id="Path_763" d="M78.187 43.561v-2.543h-4.652L76.7 37.2l-1.945-1.627-3.14 3.814-.775-4.64-2.543.42 1.131 6.789-1.322 1.589a18.433 18.433 0 0 0-26.265 4.869 41.952 41.952 0 0 0-6.356-1.449v-2.819a14.518 14.518 0 0 0 7.106-8.9h.254a5.276 5.276 0 0 0 4.92-5.53 5.937 5.937 0 0 0-.953-3.229L47.766 17a11.251 11.251 0 0 0-2.759-8.556 8.9 8.9 0 0 0-6.8-3.038H37.9a7.856 7.856 0 0 0-5.085-3.14 9.23 9.23 0 0 0-1.538-.14h-2.186c-10.679 0-19.362 7.945-19.362 17.722a.775.775 0 0 0 0 .178l.9 6.509a5.975 5.975 0 0 0-.915 3.178 5.276 5.276 0 0 0 5 5.543h.178a13.158 13.158 0 0 0 5.644 8.657v3.038C16.289 47.489 2 49.943 2 58.994v15.433A1.271 1.271 0 0 0 3.271 75.7h47.177A18.459 18.459 0 0 0 73 48.773l-2.161 1.348A15.916 15.916 0 1 1 43.164 65.8l-.331-.7a15.687 15.687 0 0 1-1.424-6.585 15.916 15.916 0 0 1 25.083-13.009l-2.543 3a11.95 11.95 0 1 0 3.551 3.636l-2.161 1.348a9.573 9.573 0 1 1-3.026-3.026L58.5 54.99v-2.619h-2.547v6.14a1.271 1.271 0 0 0 .839 1.195 1.348 1.348 0 0 0 .432.076h6.14V57.24h-3.343l8.416-10.107.229.216a11.773 11.773 0 0 1 .992 1.119l1.983-1.615a15.784 15.784 0 0 0-1.157-1.271l-.42-.381 1.348-1.627zm-46.071 5.771l-.127.1-.165.114h-.153l-.191.1h-6.1a2.4 2.4 0 0 1-1.348-.445 2.352 2.352 0 0 1-.928-1.551 2.111 2.111 0 0 1 0-.305V45.3a12.853 12.853 0 0 0 1.348.445l.331.089q.636.153 1.271.267l.445.064a13.984 13.984 0 0 0 1.627.114 7.285 7.285 0 0 0 1.042 0h.369a8.7 8.7 0 0 0 1-.153h.127c.394-.076.788-.178 1.182-.292.343-.114.712-.229 1.042-.356v2.25a1.958 1.958 0 0 1 0 .305 1.83 1.83 0 0 1-.1.42 1.856 1.856 0 0 1-.089.242l-.064.089v.089a.381.381 0 0 1-.127.127l-.076.089a1.271 1.271 0 0 1-.318.242zm10.743-16.615V26.7h.441l.242.1.191.076.216.14.191.127a2.415 2.415 0 0 1 .242.267l.114.114a3.445 3.445 0 0 1 .725 2.187 2.759 2.759 0 0 1-2.362 3.006zM29.091 4.673h2.237a6.585 6.585 0 0 1 1.081.1A5.3 5.3 0 0 1 36.1 7.317a1.271 1.271 0 0 0 1.106.648h1a6.5 6.5 0 0 1 4.907 2.187 8.772 8.772 0 0 1 2.11 6.585l-.775 7.729-.407-.127-.267-.076a4.3 4.3 0 0 0-.915-.114v-1.183a1.271 1.271 0 0 0-1.068-1.271 14.658 14.658 0 0 1-7.806-4.475 1.271 1.271 0 0 0-.953-.432 1.271 1.271 0 0 0-.953.432 1.081 1.081 0 0 1-.216.178c-2.848 2.225-13.831 4.907-15.484 4.4a1.276 1.276 0 0 0-1.754 1.182v1.182a4.882 4.882 0 0 0-.953.114l-.28.089a1.218 1.218 0 0 0-.458.153l-.661-4.755c.05-8.327 7.527-15.09 16.818-15.09zM12.272 29.717a3.432 3.432 0 0 1 .712-2.11 2.542 2.542 0 0 1 .356-.381l.127-.089a1.741 1.741 0 0 1 .267-.191l.191-.076.254-.1h.445v6a2.759 2.759 0 0 1-2.352-3.053zm4.983 3.928v-9.306c4.017-.127 12.446-2.466 15.738-4.538a17.658 17.658 0 0 0 7.412 4.208v8.759a4.691 4.691 0 0 1 0 .737v.089c-.331 3.407-2.886 6.738-6.674 8.7-.483.242-.941.445-1.437.636a10.116 10.116 0 0 1-1.017.356c-.356.1-.6.165-.9.229h-.153a6.255 6.255 0 0 1-.852.127H29.1a6.191 6.191 0 0 1-.839 0 10.944 10.944 0 0 1-5.656-1.575 10.4 10.4 0 0 1-2.086-1.641 10.958 10.958 0 0 1-3.267-6.776zM4.543 58.994c0-6.356 11.086-8.9 16.374-9.522a2.009 2.009 0 0 0 .165.331l.089.191a5.39 5.39 0 0 0 1.017 1.271l.089.076a4.411 4.411 0 0 0 .559.394l.178.114.534.254.216.089a4.6 4.6 0 0 0 .6.165h.191a4.437 4.437 0 0 0 .826.076h5.25a4 4 0 0 0 .712 0 3.407 3.407 0 0 0 .686-.165 1.615 1.615 0 0 0 .292-.1h.14l.14-.064.343-.165h.076l.305-.2a2.988 2.988 0 0 0 .407-.305 3.368 3.368 0 0 0 .369-.369l.076-.076a1.272 1.272 0 0 0 .178-.216 3.813 3.813 0 0 0 .229-.305 3.088 3.088 0 0 0 .191-.331 3.813 3.813 0 0 0 .216-.458 38.839 38.839 0 0 1 5.53 1.208 18.5 18.5 0 0 0-1.653 7.628 18.306 18.306 0 0 0 1.78 7.856v6.789H13.81V65.1h-2.542v8.06H4.543zm41.481 14.162h-2.86v-2.8a18.764 18.764 0 0 0 2.86 2.8z" class="cls-5"/>
        </g>
    </g>
</svg>
