<svg xmlns="http://www.w3.org/2000/svg" width="147.324" height="148.316" viewBox="0 0 147.324 148.316">
    <defs>
        <style>
            .cls-1{fill:#0062c3}
        </style>
    </defs>
    <g id="noun_functional_design_3751364" transform="translate(-9.595 -3.007)">
        <g id="Group_88" transform="translate(9.595 3.007)">
            <path id="Path_72" d="M70.012 30.763l2.972-4.163L41.343 4a5.51 5.51 0 0 0-6.307 0L3.4 26.6l2.967 4.16L38.19 8.032z" class="cls-1" transform="translate(-3.395 -3.007)"/>
            <path id="Path_73" d="M41 60.672a12.787 12.787 0 0 0 25.575 0V53H41z" class="cls-1" transform="translate(55.174 74.856)"/>
            <path id="Rectangle_235" d="M0 0H6V58H0z" class="cls-1" transform="translate(96.405 65.316)"/>
            <path id="Rectangle_236" d="M0 0H5V58H0z" class="cls-1" transform="translate(116.405 65.316)"/>
            <path id="Path_74" d="M101.7 39.626l-.373-1.322a33.156 33.156 0 0 0-2.949-7.151l-.67-1.2 2.887-5.614-8.213-8.209-5.614 2.887-1.2-.67a33.029 33.029 0 0 0-7.147-2.947l-1.321-.375L75.17 9H63.557l-1.931 6.025-1.326.375a33.157 33.157 0 0 0-7.151 2.949l-1.2.67-5.607-2.889-8.212 8.212 2.887 5.614-.67 1.2A33.029 33.029 0 0 0 37.4 38.3l-.373 1.322L31 41.554v11.614l6.025 1.932.373 1.322a32.925 32.925 0 0 0 2.949 7.148l.673 1.2-2.89 5.614 8.281 8.281 5.049-2.275v-10.8a25.575 25.575 0 1 1 35.8 0V76.3l5.061 2.35 8.266-8.266-2.887-5.613.673-1.2a32.977 32.977 0 0 0 2.949-7.148l.378-1.323 6.028-1.931V41.557z" class="cls-1" transform="translate(39.599 6.326)"/>
            <path id="Path_75" d="M54.279 21.932a2.125 2.125 0 0 0-3.486 0L41.8 36.31h21.466z" class="cls-1" transform="translate(56.426 25.051)"/>
            <path id="Rectangle_237" d="M0 0H5V58H0z" class="cls-1" transform="translate(106.405 65.316)"/>
            <path id="Path_76" d="M53.592 85.612H38.247V70.267H66.38v-5.115H56.15V22.043L35.69 7.43 15.23 22.043v43.109H5v5.115h28.132v15.345H17.787v15.345h15.345v20.46H17.787v15.345h35.8v-5.115h30.69v-5.115H53.592v-5.115H38.247v-20.46h15.345v-5.115h30.69v-5.115h-30.69zM28.017 21.675h15.345v10.23H28.017zm2.557 23.017v20.46H25.46V39.578h20.46v25.574H40.8V44.693zm-2.557 86.955H22.9v-5.115h5.115zm10.23 0h-5.115v-5.115h5.115zm5.115-5.115h5.115v5.115h-5.115zm-15.345-30.69H22.9v-5.115h5.115zm10.23 0h-5.115v-5.115h5.115zm10.23 0h-5.115v-5.115h5.115z" class="cls-1" transform="translate(-.895 3.881)"/>
        </g>
    </g>
</svg>
