<svg xmlns="http://www.w3.org/2000/svg" width="142.986" height="148.316" viewBox="0 0 142.986 148.316">
    <defs>
        <style>
            .cls-1{fill:#0062c3}
        </style>
    </defs>
    <g id="noun_software_development_1864933" transform="translate(627.759 -22)">
        <g id="Group_86" transform="translate(-627.759 22)">
            <g id="Group_80" transform="translate(10.66 46.58)">
                <path id="Path_58" d="M6.8 21.1v63.729h104.748V53.544h-13.9a8.555 8.555 0 0 1-8.575-8.575V21.1zm38.933 20.857L32.292 52.385l12.514 11.356a1.819 1.819 0 0 1 0 2.549c-.232.463-.927.463-1.39.463a1.77 1.77 0 0 1-1.159-.463l-13.9-12.746a1.115 1.115 0 0 1-.463-1.39 2 2 0 0 1 .7-1.39l15.053-11.82a1.548 1.548 0 0 1 2.317.232 2.037 2.037 0 0 1-.231 2.781zM66.126 36.4L55.234 70.7a1.743 1.743 0 0 1-1.622 1.159h-.463a1.762 1.762 0 0 1-1.159-2.086l10.892-34.53a1.658 1.658 0 0 1 2.086-1.159 1.731 1.731 0 0 1 1.158 2.316zM89.764 51a1.4 1.4 0 0 1 .7 1.39A3.294 3.294 0 0 1 90 53.776L76.1 66.522c-.463.232-.7.463-1.159.463a1.77 1.77 0 0 1-1.159-.463 1.819 1.819 0 0 1 0-2.549l12.506-11.356-13.441-10.428a1.816 1.816 0 0 1-.232-2.549 1.565 1.565 0 0 1 2.317-.232z" class="cls-1" transform="translate(-6.8 -21.1)"/>
            </g>
            <g id="Group_81" transform="translate(0 35.225)">
                <path id="Path_59" d="M120.853 92.907A1.828 1.828 0 0 1 119 94.761H11.006a1.828 1.828 0 0 1-1.854-1.854V25.7a1.828 1.828 0 0 1 1.854-1.854H94.9V16.2H2.2v86.208h126.068V60h-7.184v32.907z" class="cls-1" transform="translate(-2.2 -16.2)"/>
            </g>
            <g id="Group_82" transform="translate(16.917 124.91)">
                <path id="Path_60" d="M99.648 74.83H85.28L79.023 54.9H31.979l-6.257 19.93H11.354A1.791 1.791 0 0 0 9.5 76.452a1.828 1.828 0 0 0 1.854 1.854h88.294a1.828 1.828 0 0 0 1.854-1.854 1.791 1.791 0 0 0-1.854-1.622z" class="cls-1" transform="translate(-9.5 -54.9)"/>
            </g>
            <g id="Group_83" transform="translate(96.173)">
                <path id="Path_61" d="M85.414 1H48.8a5.144 5.144 0 0 0-5.1 5.1v7.648h46.58V6.1A4.949 4.949 0 0 0 85.414 1zM73.131 9.111h-12.05a1.854 1.854 0 0 1 0-3.708h12.05a1.828 1.828 0 0 1 1.854 1.854 1.994 1.994 0 0 1-1.854 1.854z" class="cls-1" transform="translate(-43.7 -1)"/>
            </g>
            <g id="Group_84" transform="translate(96.405 15.99)">
                <path id="Rectangle_233" d="M0 0H46.58V43.568H0z" class="cls-1"/>
            </g>
            <g id="Group_85" transform="translate(96.405 63.034)">
                <path id="Path_62" d="M43.8 35.848a5.144 5.144 0 0 0 5.1 5.1h36.382a5.144 5.144 0 0 0 5.1-5.1V28.2H43.8zm23.174-3.94a2.781 2.781 0 1 1-2.781 2.781 2.818 2.818 0 0 1 2.781-2.781z" class="cls-1" transform="translate(-43.8 -28.2)"/>
            </g>
        </g>
    </g>
</svg>
