<svg xmlns="http://www.w3.org/2000/svg" width="148.316" height="148.316" viewBox="0 0 148.316 148.316">
    <defs>
        <style>
            .cls-1{fill:#0062c3}
        </style>
    </defs>
    <g id="noun_User_Experience_2209227" transform="translate(-11.546 -4)">
        <path id="Rectangle_234" d="M0 0H5V27H0z" class="cls-1" transform="translate(97.025 51.645)"/>
        <path id="Path_63" d="M36.263 61.024a7.945 7.945 0 0 0 7.945 7.945h47.673a7.945 7.945 0 0 0 7.945-7.945V23.945A7.945 7.945 0 0 0 91.881 16H44.208a7.945 7.945 0 0 0-7.945 7.945v16.988l-6.849 6.849 6.849 6.849zm5.3-34.43h15.888v5.3h5.3v-2.652a7.945 7.945 0 0 1 15.891 0v2.648h7.945a7.945 7.945 0 0 1 7.945 7.945v5.3a13.258 13.258 0 0 1-13.245 13.241H57.451v5.3H41.56z" class="cls-1" transform="translate(49.441 19.782)"/>
        <path id="Path_64" d="M71.782 38.539v-5.3a2.648 2.648 0 0 0-2.649-2.648H55.891v-7.943a2.648 2.648 0 1 0-5.3 0v7.945H40v15.892h23.836a7.945 7.945 0 0 0 7.946-7.946z" class="cls-1" transform="translate(66.892 26.376)"/>
        <path id="Path_65" d="M43.755 40.056L31.836 57.931 19.918 40.048A13.213 13.213 0 0 0 8 53.163v39.728h47.673V53.163a13.213 13.213 0 0 0-11.918-13.107zM33.717 81.529a2.686 2.686 0 1 1 .768-1.88 2.786 2.786 0 0 1-.768 1.88zm0-13.242a2.659 2.659 0 0 1-3.761-3.761 2.733 2.733 0 0 1 .874-.556 2.426 2.426 0 0 1 2.013 0 3.1 3.1 0 0 1 .874.556 2.686 2.686 0 0 1 0 3.76z" class="cls-1" transform="translate(14.14 59.425)"/>
        <path id="Path_66" d="M12.383 36.71a13.242 13.242 0 0 0 25.471-5.061V29h-7.946a23.964 23.964 0 0 0-17.525 7.71z" class="cls-1" transform="translate(21.365 41.212)"/>
        <path id="Path_67" d="M26.161 40H14.868l5.647 8.467z" class="cls-1" transform="translate(25.462 59.346)"/>
        <path id="Path_68" d="M4 4v15.891h148.316V4zm9.826 9.826a2.786 2.786 0 0 1-1.88.768 2.648 2.648 0 0 1-1.006-.212 2.733 2.733 0 0 1-.874-.556 2.686 2.686 0 0 1 0-3.761 2.733 2.733 0 0 1 .874-.556 2.648 2.648 0 0 1 2.887.556 2.686 2.686 0 0 1 0 3.761zm10.594 0a2.686 2.686 0 0 1-3.761 0 4.174 4.174 0 0 1-.318-.4 2 2 0 0 1-.238-.477 1.684 1.684 0 0 1-.159-.477 3.973 3.973 0 0 1-.053-.53 2.648 2.648 0 0 1 .212-1.006 3.059 3.059 0 0 1 .556-.874 2.773 2.773 0 0 1 3.761 0 3.059 3.059 0 0 1 .556.874 2.648 2.648 0 0 1 .212 1.006 2.786 2.786 0 0 1-.768 1.88zm10.594 0a2.786 2.786 0 0 1-1.88.768 3.589 3.589 0 0 1-.53-.053 1.684 1.684 0 0 1-.477-.159 2.071 2.071 0 0 1-.479-.238l-.395-.318a2.773 2.773 0 0 1-.768-1.88 2.219 2.219 0 0 1 .212-1.006 2.733 2.733 0 0 1 .556-.874l.395-.318a2.071 2.071 0 0 1 .479-.238 1.684 1.684 0 0 1 .473-.16 2.77 2.77 0 0 1 2.41.715 2.733 2.733 0 0 1 .556.874 2.256 2.256 0 0 1 .212 1.006 2.786 2.786 0 0 1-.764 1.881z" class="cls-1" transform="translate(7.546)"/>
        <path id="Path_69" d="M4 128.534h5.3V99.4a18.561 18.561 0 0 1 18.536-18.539h21.188A18.561 18.561 0 0 1 67.564 99.4v29.133h84.752V12H4zm68.861-83.2V30.539A13.258 13.258 0 0 1 86.1 17.3h47.673a13.258 13.258 0 0 1 13.242 13.242v37.076a13.258 13.258 0 0 1-13.242 13.242H86.1a13.258 13.258 0 0 1-13.239-13.242v-4.2l-9.042-9.042zm-34.43-4.2H56.97v18.539a18.539 18.539 0 1 1-18.54-18.54z" class="cls-1" transform="translate(7.546 13.188)"/>
        <path id="Path_70" d="M38.4 30.3V25H25.157a13.213 13.213 0 0 0-13.1 11.876 29.268 29.268 0 0 1 18.4-6.579z" class="cls-1" transform="translate(20.82 34.618)"/>
    </g>
</svg>
