<svg xmlns="http://www.w3.org/2000/svg" width="105.685" height="98.852" viewBox="0 0 105.685 98.852">
    <defs>
        <style>
            .cls-1{fill:#fff}
        </style>
    </defs>
    <g id="noun_degree_3305958" transform="translate(-1 -3.134)">
        <g id="Group_143" transform="translate(1 3.133)">
            <g id="Group_138" transform="translate(0 50.525)">
                <path id="Path_727" d="M63.235 37.468c2.88 8.83 2.888 17.292.022 25.169H45a37.1 37.1 0 0 0 .017-25.169h.812c4.988.144 9.763.145 14.759 0zM8.306 65.488a3.347 3.347 0 0 1-2.98-1.36c-5.768-7.858-5.768-20.17 0-28.028a3.348 3.348 0 0 1 2.98-1.36c14.639 1.391 25.264 2.269 34.843 2.637a35.558 35.558 0 0 1-.044 25.462c-9.581.373-20.161 1.261-34.799 2.649zm54.946 17.526l-8.968-5.836a.852.852 0 0 0-.938 0l-8.705 5.809V64.5c6.306-.21 12.221-.193 18.611.053v18.461zm38.041-18.447a3.188 3.188 0 0 1-2.652.97c-14.069-1.339-24.435-2.219-33.7-2.63 2.85-8.045 2.852-16.645.006-25.6 9.239-.407 19.6-1.275 33.619-2.61a3.354 3.354 0 0 1 2.858 1.2 21.945 21.945 0 0 1-.131 28.67z" class="cls-1" transform="translate(-1 -34.686)"/>
            </g>
            <g id="Group_139" transform="translate(22.262 20.202)">
                <path id="Path_728" d="M76.006 15.749v17.062c0 6.272-16.465 8.488-30.543 8.488-14.1 0-30.561-2.216-30.561-8.488V15.749c30.79 7.993 29.623 7.84 30.543 7.84 1.102.001.983-.183 30.561-7.84z" class="cls-1" transform="translate(-14.902 -15.749)"/>
            </g>
            <g id="Group_142" transform="translate(8.029)">
                <g id="Group_140" transform="translate(38.632 10.206)">
                    <path id="Path_729" d="M36.3 9.507c-3.7 0-6.158 1.269-6.158 2.109s2.458 2.108 6.158 2.108 6.158-1.269 6.158-2.108S40 9.507 36.3 9.507z" class="cls-1" transform="translate(-30.14 -9.507)"/>
                </g>
                <g id="Group_141">
                    <path id="Path_730" d="M95.6 29.454v-14.01a.691.691 0 0 0-.051-.256.711.711 0 0 0-.222-.358.668.668 0 0 0-.171-.136.615.615 0 0 0-.187-.068c-.017-.017-.034-.017-.068-.017L51.012 3.172a.66.66 0 0 0-.443 0L6.645 14.626a.846.846 0 0 0 0 1.636l43.924 11.471a1 1 0 0 0 .221.034 1.174 1.174 0 0 0 .222-.034L93.9 16.535v12.92a4.587 4.587 0 0 0-3.7 4.483v5.488a.855.855 0 0 0 .852.852h7.4a.854.854 0 0 0 .852-.852v-5.489a4.587 4.587 0 0 0-3.704-4.483zM50.8 19.261c-3.811 0-7.862-1.337-7.862-3.813s4.051-3.813 7.862-3.813 7.862 1.337 7.862 3.813-4.047 3.813-7.862 3.813z" class="cls-1" transform="translate(-6.014 -3.133)"/>
                </g>
            </g>
        </g>
    </g>
</svg>
