<svg xmlns="http://www.w3.org/2000/svg" width="103.313" height="103.352" viewBox="0 0 103.313 103.352">
    <defs>
        <style>
            .cls-1{fill:#fff}
        </style>
    </defs>
    <g id="noun_Research_3884281" transform="translate(-2.5 -2.5)">
        <g id="Group_145" transform="translate(2.5 2.5)">
            <path id="Path_751" d="M104.193 96.8L82.005 75.588a44.935 44.935 0 1 0-6.417 6.417L96.8 104.193c0 .109.109.109.218.218a5.189 5.189 0 0 0 7.4-.218 5.29 5.29 0 0 0-.225-7.393zM9.461 47.31A37.849 37.849 0 1 1 47.31 85.159 37.876 37.876 0 0 1 9.461 47.31z" class="cls-1" transform="translate(-2.5 -2.5)"/>
            <circle id="Ellipse_57" cx="5.329" cy="5.329" r="5.329" class="cls-1" transform="translate(40.242 39.698)"/>
            <path id="Path_752" d="M72.727 52.668a27.253 27.253 0 0 0-4.786-6.634c1.088-1.305 2.175-2.61 3.154-4.024a17.749 17.749 0 0 0 2.393-5.656 6.854 6.854 0 0 0-.218-3.589 5.234 5.234 0 0 0-.87-1.74 5.323 5.323 0 0 0-1.414-1.305 7.3 7.3 0 0 0-3.154-1.088 13.364 13.364 0 0 0-2.937-.218 35.681 35.681 0 0 0-10.767 2.066.62.62 0 1 0 .326 1.2 25.421 25.421 0 0 1 10.225-.98 7.029 7.029 0 0 1 2.284.653 6.622 6.622 0 0 1 1.631 1.305 8.2 8.2 0 0 1 .653 1.414 4.4 4.4 0 0 1 .109 1.74 13.091 13.091 0 0 1-1.631 4.133 25.445 25.445 0 0 1-2.61 3.372 67.68 67.68 0 0 0-18.164-11.531 64.7 64.7 0 0 0-6.417-2.393 23.7 23.7 0 0 1 2.828-5.764 6.165 6.165 0 0 1 2.828-2.393 2.183 2.183 0 0 1 2.175.544v.435a4.894 4.894 0 1 0 4.894-4.894 5.51 5.51 0 0 0-1.414.218 8.9 8.9 0 0 0-3.045-1.524 7.652 7.652 0 0 0-4.133.218 10.736 10.736 0 0 0-5.221 4.459 29.972 29.972 0 0 0-3.372 7.4 38.6 38.6 0 0 0-5.112-.653 15.149 15.149 0 0 0-6.091.761 7.347 7.347 0 0 0-2.937 1.958 4.3 4.3 0 0 0-1.088 1.631 11.378 11.378 0 0 0-.435 1.849 10.253 10.253 0 0 0 .544 3.263 20.542 20.542 0 0 0 1.2 2.719 37.765 37.765 0 0 0 7.178 8.266.538.538 0 0 0 .761-.761 26.348 26.348 0 0 1-5.982-8.375 5.724 5.724 0 0 1-.218-4.35 5.465 5.465 0 0 1 .87-1.305 4.47 4.47 0 0 1 1.414-.87 11.339 11.339 0 0 1 4.459-.653 18.9 18.9 0 0 1 4.242.544 68.318 68.318 0 0 0-.979 21.531 46.009 46.009 0 0 0 1.2 6.743 21.535 21.535 0 0 1-6.417.435 6.513 6.513 0 0 1-3.48-1.2 2.067 2.067 0 0 1-.544-2.175c.109-.109.326-.109.435-.218a4.85 4.85 0 1 0-6.634-1.74 3.085 3.085 0 0 0 .979 1.088 8.98 8.98 0 0 0 .218 3.372 7.309 7.309 0 0 0 2.175 3.48 10.538 10.538 0 0 0 6.417 2.284 32.128 32.128 0 0 0 8.048-.761 44.294 44.294 0 0 0 1.958 4.786 14.231 14.231 0 0 0 3.7 4.894A9.634 9.634 0 0 0 45.1 76.27a5.941 5.941 0 0 0 1.958.109 8.15 8.15 0 0 0 1.74-.544 6.985 6.985 0 0 0 2.5-2.175c.653-.761 1.2-1.631 1.74-2.393a41.7 41.7 0 0 0 3.589-10.332.555.555 0 1 0-1.088-.218 23.857 23.857 0 0 1-4.35 9.354 8.177 8.177 0 0 1-1.74 1.631 4.885 4.885 0 0 1-1.958.761 6.688 6.688 0 0 1-1.523-.109 6.6 6.6 0 0 1-1.523-.761 13.165 13.165 0 0 1-2.828-3.48A24.765 24.765 0 0 1 39.99 64.2a67.451 67.451 0 0 0 19.033-9.9 68.063 68.063 0 0 0 5.329-4.459 24.137 24.137 0 0 1 3.589 5.329 5.768 5.768 0 0 1 .653 3.589 2.493 2.493 0 0 1-1.523 1.631c-.109-.109-.218-.218-.326-.218a4.85 4.85 0 1 0 1.74 6.634 5.463 5.463 0 0 0 .544-1.414 9.052 9.052 0 0 0 2.828-1.849 6.671 6.671 0 0 0 1.849-3.7 10.575 10.575 0 0 0-.979-7.175zM56.848 50.6a62.03 62.03 0 0 1-17.837 8.81 58.683 58.683 0 0 1-.979-6.308 64.261 64.261 0 0 1 1.305-19.9q2.937.979 5.873 2.284a61.23 61.23 0 0 1 16.533 11.091 45.985 45.985 0 0 1-4.895 4.023z" class="cls-1" transform="translate(-1.162 -1.332)"/>
        </g>
    </g>
</svg>
