<svg xmlns="http://www.w3.org/2000/svg" width="179.574" height="187.633" viewBox="0 0 179.574 187.633">
    <defs>
        <style>
            .cls-1{fill:#071826}
        </style>
    </defs>
    <g id="noun_contact_1092471" transform="translate(-6.219 -1)">
        <g id="Group_91" transform="translate(6.219 1)">
            <path id="Path_77" d="M71.885 71.435a12.428 12.428 0 0 0-2.167 3.846 26.408 26.408 0 0 1-6.008 10.245c-3.916 4.016-8.447 6.14-13.1 6.14h-.01c-4.682 0-9.236-2.149-13.18-6.2a26.387 26.387 0 0 1-6.14-10.716 8.524 8.524 0 0 0-1.622-2.911c-4.791-5.593-6.791-10.949-6.295-16.857l.03-.378c.024-.324.061-.772.112-1.059 1.613-.536 2.563-2.082 2.618-4.261.036-1.549.048-3.117.064-4.633.015-1.689.03-3.414.079-5.133a5.2 5.2 0 0 1 5.2-5.2h.154l2.609.076c2.149-.176 4.319-.154 6.482-.182 1.934-.024 3.871-.006 5.8-.006h5.7c2.076 0 4.152.006 6.228 0 1.534-.006 3.069-.03 4.6-.036 1.326-.009 2.654 0 3.98-.006a12.807 12.807 0 0 1 3.831.36 4.906 4.906 0 0 1 3.19 2.66 21.073 21.073 0 0 1 .872 2.733l.045-.054C75 41.338 75 42.842 75 44.389c0 1.347-.006 2.739.024 4.125.009.369.006.741 0 1.141v.778a3.212 3.212 0 0 0 2.636 3.16c.061.287.1.687.118.85.637 5.94-1.239 11.342-5.893 16.992zM16.4 54.736c.121 1.244.2 2.494.281 3.741.412 6.168 3.023 11.993 7.914 17.7a1.8 1.8 0 0 1 .33.587 32.891 32.891 0 0 0 7.717 13.352c5.226 5.372 11.434 8.21 17.952 8.213h.012c6.492 0 12.674-2.818 17.874-8.153a32.886 32.886 0 0 0 7.551-12.762 5.843 5.843 0 0 1 1-1.746c5.063-6.147 7.545-12.4 7.536-19.054 0-.46 0-.923.006-1.383l.1-23.015q-.172-1.144-.339-2.324c.121.312.239.614.354.9.209.533.409 1.038.59 1.549.281.784.524 1.58.781 2.373a1.2 1.2 0 0 0-.03-.421 31.907 31.907 0 0 0-2.229-7.257c-.085-.182-.169-.363-.248-.545a.009.009 0 0 1 0-.006c-.151-.339-.291-.678-.415-1.023q-.545-1.48-1.086-2.963l-.817-2.252-.151-.406c.054-.03.112-.061.163-.091l2.781 4.388a14.1 14.1 0 0 0-.514-1.456 15.049 15.049 0 0 0-3.559-5.438 5.815 5.815 0 0 1-.911-1.056 15.728 15.728 0 0 0-6.343-5.806c-.079-.039-.16-.076-.239-.112-1.251-.554-2.51-1.078-3.761-1.613-.315-.133-.626-.269-.941-.406.636.051 1.265.121 1.885.215a36.194 36.194 0 0 1 10.144 3.256 2.559 2.559 0 0 0-.409-.324A28.531 28.531 0 0 0 66.486 6.9c-.179-.021-.357-.039-.536-.058a16.283 16.283 0 0 1-4.606-.8 15.062 15.062 0 0 0-1.816-.518c-.705-.182-1.41-.354-2.112-.53l-.508-.124c.009-.088.006-.061.018-.148h8.014c-.061-.157-.133-.206-.209-.215a45.078 45.078 0 0 0-10.5-.56 15.923 15.923 0 0 1-3.6 0c-.53-.073-1.068-.094-1.6-.139 0-.091 0-.064-.006-.154 2.615-.487 5.23-.974 8-1.492a52.717 52.717 0 0 0-7.974.711c-1.444.254-2.854.717-4.306.9-2.07.269-4.167.378-6.265.554A40.562 40.562 0 0 1 51.563 1c-.85.024-1.7-.015-2.545.03a43.4 43.4 0 0 0-9.267 1.362A18.434 18.434 0 0 0 32.8 5.706a11.641 11.641 0 0 1-1.292.8c-.042-.067-.088-.13-.13-.2.944-.681 1.852-1.419 2.839-2.037a31.2 31.2 0 0 1 3.134-1.689c1.038-.487 2.118-.878 3.181-1.31a30.931 30.931 0 0 0-6.083 2.23c-3.871 1.9-6.782 5.069-10.129 7.663a.14.14 0 0 1-.021.021c-.218.351-.454.69-.645 1.056-.281.539-.5 1.12-.817 1.631a1.6 1.6 0 0 1-.729.508c-.548.224-1.135.354-1.677.6a9.1 9.1 0 0 0-5.3 6.588 11.915 11.915 0 0 1 2.842-3.741c-.345 1.189-.633 2.246-.968 3.287a5.561 5.561 0 0 1-.623 1.3 13.243 13.243 0 0 0-1.543 3.371l1.489-2.539c.039.021.079.039.115.061-.048.218-.094.439-.145.657l-.027.124a56.434 56.434 0 0 0-1.093 17.964z" class="cls-1" transform="translate(23.003 -1)"/>
            <g id="Group_90" transform="translate(109.617 117.676)">
                <path id="Path_78" d="M73.531 109.841a34.978 34.978 0 1 1 34.979-34.979 35.019 35.019 0 0 1-34.979 34.979zm0-60.715a25.733 25.733 0 1 0 25.734 25.733 25.762 25.762 0 0 0-25.734-25.733z" class="cls-1" transform="translate(-38.553 -39.884)"/>
                <path id="Path_79" d="M76.144 77.046a3.955 3.955 0 0 0-.7-1.873c-.645-.85-1.283-1.707-1.922-2.56s-1.265-1.692-1.9-2.536l-.1-.127a5.08 5.08 0 0 0-.974-1.062 3.146 3.146 0 0 0-3.813-.021c-.288.2-.566.409-.832.614l-.182.136-1.347 1.023-.248.188a24.633 24.633 0 0 1-6.11-6.125 26.305 26.305 0 0 1-2.92-5.91c.106-.07.215-.142.324-.221.194-.145.387-.287.581-.43.59-.427 1.2-.872 1.77-1.35a3.179 3.179 0 0 0 .505-4.527c-.312-.412-.617-.823-.926-1.238l-.617-.826c-.248-.33-.5-.663-.741-.993-.636-.85-1.292-1.731-1.949-2.588a3.118 3.118 0 0 0-4.137-.787 10.133 10.133 0 0 0-2.243 1.761 9.02 9.02 0 0 0-2.128 3.68l-.218.757-.094.33-.257 1.746-.006 1.235a15 15 0 0 0 .62 4.182 26.973 26.973 0 0 0 2.981 6.507 57.933 57.933 0 0 0 3.539 5.141 37.78 37.78 0 0 0 4.334 4.791 28.156 28.156 0 0 0 4.076 3.193 20.768 20.768 0 0 0 6.022 2.7 8.716 8.716 0 0 0 2.194.284 9.282 9.282 0 0 0 6.649-2.963 3.259 3.259 0 0 0 .469-.757c.045-.094.091-.185.139-.272l.051-.094.13-.92z" class="cls-1" transform="translate(-25.576 -28.773)"/>
            </g>
            <path id="Path_80" d="M104.383 88.485a42.552 42.552 0 0 1 21.8-37.109 52.243 52.243 0 0 0-14.536-5.176c-4.44-.917-10.414-7.6-12.959-13.044l-1.356 1.011a33.418 33.418 0 0 1-43.1 0l1.976 1.6a40.412 40.412 0 0 1-3.332-2.612C50.339 38.6 44.365 45.284 39.922 46.2 20.369 50.238 8.624 61.465 6.176 81.712l-3.82 29.258c-.124 2.385.163 2.8 2.367 3.647 1.044.406 2.1.793 3.16 1.144a129.569 129.569 0 0 0 29.809 5.7c12.7 1.062 25.446 1.607 31.995 2 20.213-.172 35.215-.76 49.687-2.624a42.432 42.432 0 0 1-14.991-32.352z" class="cls-1" transform="translate(-2.332 64.167)"/>
        </g>
    </g>
</svg>
