<svg xmlns="http://www.w3.org/2000/svg" width="132.06" height="148.316" viewBox="0 0 132.06 148.316">
    <defs>
        <style>
            .cls-1{fill:#0062c3}
        </style>
    </defs>
    <g id="noun_online_form_3241565" transform="translate(-16.317 -3.25)">
        <g id="Group_78" transform="translate(16.317 3.25)">
            <g id="Group_76" transform="translate(0 33.033)">
                <path id="Path_40" d="M126.728 17.17h-2.563v11.865h2.563a.291.291 0 0 1 .142.261v61.842H18.54v-1.922c.024-.238.024-.5.024-.736V29.3a.291.291 0 0 1 .142-.261h2.563V17.17h-2.563A12.078 12.078 0 0 0 6.7 29.3v59.18a.4.4 0 0 0-.024.166v12.032a11.259 11.259 0 0 0 11.367 11.129h109.325a11.259 11.259 0 0 0 11.367-11.129V29.3a12.078 12.078 0 0 0-12.007-12.13zm-54.035 88.277a3.465 3.465 0 1 1 3.441-3.465 3.459 3.459 0 0 1-3.441 3.465z" class="cls-1" transform="translate(-6.675 -17.17)"/>
            </g>
            <path id="Path_41" d="M85.8 71.625a4.021 4.021 0 0 1-4.01 4.011H24.815a4.011 4.011 0 0 1 0-8.021h4.177l4.936-9.065H72.68l4.936 9.065h4.177a4.021 4.021 0 0 1 4.007 4.01z" class="cls-1" transform="translate(12.726 72.68)"/>
            <g id="Group_77" transform="translate(18.154)">
                <path id="Path_42" d="M21.255 6.259a2.187 2.187 0 1 0 2.173 2.188 2.183 2.183 0 0 0-2.173-2.188z" class="cls-1" transform="translate(-7.792 .882)"/>
                <path id="Path_43" d="M14.325 11.86v65.781a7.135 7.135 0 0 0 7.119 7.167h81.514a7.155 7.155 0 0 0 7.143-7.167V11.86zm9.041 30.04V20.593a.942.942 0 0 1 .925-.926H55.83a.927.927 0 0 1 .926.926V41.9a.912.912 0 0 1-.926.925H24.292a.926.926 0 0 1-.926-.925zm76.744 30.944H24.7a.925.925 0 1 1 0-1.85h75.416a.925.925 0 1 1 0 1.85zm0-10.773H24.7a.912.912 0 0 1-.926-.926.926.926 0 0 1 .926-.925h75.416a.942.942 0 0 1 .926.925.927.927 0 0 1-.931.929zm0-10.774H24.7a.912.912 0 0 1-.926-.925.927.927 0 0 1 .926-.926h75.416a.942.942 0 0 1 .926.926.927.927 0 0 1-.931.928zm0-9.468H63.067a.943.943 0 0 1-.926-.926.926.926 0 0 1 .926-.925h37.043a.926.926 0 0 1 .926.925.943.943 0 0 1-.925.929zm0-10.014H63.067a.926.926 0 0 1 0-1.851h37.043a.926.926 0 0 1 0 1.851zm0-10.015H63.067a.927.927 0 0 1-.926-.926.942.942 0 0 1 .926-.925h37.043a.942.942 0 0 1 .926.925.927.927 0 0 1-.925.926z" class="cls-1" transform="translate(-14.325 8.572)"/>
                <path id="Rectangle_229" d="M0 0H29.678V19.46H0z" class="cls-1" transform="translate(10.903 30.099)"/>
                <path id="Path_44" d="M26.008 6.259a2.187 2.187 0 1 0 2.171 2.188 2.183 2.183 0 0 0-2.171-2.188z" class="cls-1" transform="translate(-1.267 .882)"/>
                <path id="Path_45" d="M30.759 6.259a2.187 2.187 0 1 0 2.173 2.188 2.183 2.183 0 0 0-2.173-2.188z" class="cls-1" transform="translate(5.259 .882)"/>
                <path id="Path_46" d="M102.958 3.25H21.444a7.135 7.135 0 0 0-7.119 7.167v9.706H110.1v-9.706a7.155 7.155 0 0 0-7.142-7.167zM27.78 16.61a4.034 4.034 0 1 1 4.034-4.034 4.026 4.026 0 0 1-4.034 4.034zm11.3 0a4.034 4.034 0 1 1 4.01-4.034 4.031 4.031 0 0 1-4.014 4.034zm11.272 0a4.034 4.034 0 1 1 4.01-4.034 4.031 4.031 0 0 1-4.014 4.034z" class="cls-1" transform="translate(-14.325 -3.25)"/>
            </g>
        </g>
    </g>
</svg>
