<svg xmlns="http://www.w3.org/2000/svg" width="137.833" height="148.316" viewBox="0 0 137.833 148.316">
    <defs>
        <style>
            .cls-1{fill:#0062c3}
        </style>
    </defs>
    <g id="noun_Web_Designer_108828" transform="translate(-3.576 -3)">
        <path id="Path_47" d="M55.343 50.095a4.317 4.317 0 0 0-4.08-4.395h-.471c-2.04 0-3.767 1.883-4.081 4.238a5 5 0 0 0 .942 3.453 3.961 3.961 0 0 0 2.825 1.1h.628a5.348 5.348 0 0 0 4.238-4.395zm-4.551 1.726c-.471 0-.942 0-1.1-.314a1.691 1.691 0 0 1-.314-1.256 2.118 2.118 0 0 1 1.413-1.883h.157c1.256.157 1.883.785 1.883 1.726a4.339 4.339 0 0 1-2.039 1.727z" class="cls-1" transform="translate(24.547 24.317)"/>
        <path id="Path_48" d="M91.884 47.342A18.47 18.47 0 0 0 74.62 35.1a17.478 17.478 0 0 0-11.457 4.238l-.157.157A19.932 19.932 0 0 0 56.1 54.718c0 10.829 8.318 19.462 18.52 19.462a18.576 18.576 0 0 0 16.793-11.143c.942 3.924 3.139 8.475 7.69 10.515 6.749 3.139 7.69 12.4 7.69 12.4 10.36-14.44 2.826-41.278-14.909-38.61zM74.777 70.727c-8.475 0-15.224-7.377-15.224-16.323a17.459 17.459 0 0 1 2.04-8.161c1.726 5.336 6.749 9.574 12.242 11.143a33.808 33.808 0 0 0 15.852.471c-1.57 7.534-7.687 12.87-14.91 12.87z" class="cls-1" transform="translate(29.911 18.28)"/>
        <path id="Path_49" d="M43.257 41.2c-2.354 0-4.238 1.569-5.022 4.238v.157a5.736 5.736 0 0 0 1.1 4.551 4.856 4.856 0 0 0 3.3 1.726h.628a5.842 5.842 0 0 0 5.493-4.238v-.314a5.165 5.165 0 0 0-4.238-5.964 3.9 3.9 0 0 0-1.261-.156zm2.668 5.65c-.471 1.1-1.413 2.354-2.825 2.354h-.314a1.648 1.648 0 0 1-1.413-.785 2.819 2.819 0 0 1-.471-2.354c.471-1.413 1.413-2.2 2.354-2.2a1.186 1.186 0 0 1 .628.157 2.359 2.359 0 0 1 2.042 2.828z" class="cls-1" transform="translate(19.682 21.754)"/>
        <path id="Path_50" d="M39.555 65.151c8.161 0 14.753-2.04 22.287-7.063 6.121-4.395 13.654-11.457 14.6-20.246 1.1-13.811-6.592-30.291-32.017-34.372A61.638 61.638 0 0 0 37.2 3c-6.591 0-12.085 1.726-18.206 5.65-4.237 2.825-13.968 9.574-15.224 20.717-.941 9.574 1.57 18.363 6.906 24.641 5.807 6.749 14.6 10.516 25.582 11.143zM12.873 52.282C7.851 46.475 5.654 38.47 6.6 29.681c1.1-10.2 10.045-16.166 13.968-18.834 5.65-3.61 10.516-5.179 16.636-5.179a34.852 34.852 0 0 1 6.749.628C54.151 7.865 62.155 11 67.491 17.282a28.092 28.092 0 0 1 6.278 20.56c-.785 7.69-7.69 14.125-13.341 18.206-6.905 4.552-13.183 6.592-20.716 6.592a18.993 18.993 0 0 1-2.982-.157c-10.359-.628-18.52-4.083-23.857-10.201z" class="cls-1"/>
        <path id="Rectangle_230" d="M0 0H36.569V6.906H0z" class="cls-1" transform="translate(21.663 20.735)"/>
        <path id="Rectangle_231" d="M0 0H9.103V17.421H0z" class="cls-1" transform="translate(21.663 30.623)"/>
        <path id="Rectangle_232" d="M0 0H23.385V17.421H0z" class="cls-1" transform="translate(34.846 30.623)"/>
        <path id="Path_51" d="M100.8 86.555c1.256-4.395 1.256-8.475 0-14.282a14.184 14.184 0 0 0-1.726-4.238A22.6 22.6 0 0 0 83.691 61.6a19.885 19.885 0 0 0-9.417 2.354c-12.242 6.435-16.636 15.852-18.991 20.4a23.666 23.666 0 0 0-1.883 4.084c1.256 3.139 2.668 6.278 3.924 9.417.471 1.1.785 2.04 1.256 3.139 2.511.628 5.336 1.413 8 2.2a10.151 10.151 0 0 1 2.04.628 1.186 1.186 0 0 1 .628-.157l3.3-1.413c-1.726-.471-3.453-.942-5.336-1.569-3.139-.942-6.435-1.883-9.26-2.511C61.4 82.631 70.978 76.51 70.978 76.51c4.395 6.592 8 14.753 7.847 22.6A56.752 56.752 0 0 0 84 95.972a19.485 19.485 0 0 0 7.847-10.829 11.877 11.877 0 0 0 .314-6.121 1.378 1.378 0 0 1 .157-1.1v-.157c.157-.157.314-.157.628-.157a.577.577 0 0 1 .471.157 1.829 1.829 0 0 1 .314 1.1 21.115 21.115 0 0 1-.314 6.749 20.962 20.962 0 0 1-8.475 11.614 51.931 51.931 0 0 1-10.045 5.65c-1.256.628-2.511 1.1-3.924 1.726a3.154 3.154 0 0 0-1.256.628s-4.551 1.256-3.924 3.3c.314.942 1.569 1.569 3.453 1.726h2.2a1.186 1.186 0 0 0 .628-.157h.314c.314 0 .628-.157.942-.157 3.767-1.1 10.359-3.453 15.381-7.22 4.083-3.457 10.047-8.636 12.089-16.169z" class="cls-1" transform="translate(28.374 33.371)"/>
        <path id="Path_52" d="M92.459 79.11c-2.2 8-8.475 13.5-12.87 16.636a46.059 46.059 0 0 1-8.789 4.865 14.318 14.318 0 0 0 5.179.785 18.994 18.994 0 0 0 2.982-.157 47.044 47.044 0 0 0 12.4-2.511 2.027 2.027 0 0 0 1.413-1.883 112.936 112.936 0 0 0 .942-13.027v-.157a69.139 69.139 0 0 0-.471-8.161 24.385 24.385 0 0 1-.786 3.61z" class="cls-1" transform="translate(38.282 41.287)"/>
        <path id="Path_53" d="M51.814 89.564v-.314a16.1 16.1 0 0 0-.628-2.2c-.628-1.883-1.1-3.453-1.883-3.453h-.157c-.942.314-1.256 2.2-.628 4.238a3.878 3.878 0 0 0 .628 1.413c.157.314.314.471.471.785l.314.314.314.314.157.157.314.157.157.157h.314l.157-.157.157-.157V90.033z" class="cls-1" transform="translate(25.408 45.9)"/>
        <path id="Path_54" d="M75.4 96.389c-1.726 1.256-3.61 2.668-5.336 3.924-6.749-1.726-19.3-4.551-25.9-5.964 2.982-1.1 7.22-2.825 11.3-4.551a5.131 5.131 0 0 1-1.726-2.2c-7.063 2.982-14.439 5.807-14.6 5.807a1.373 1.373 0 0 0-.938 1.415 1.332 1.332 0 0 0 1.1 1.256c.157 0 21.659 4.708 30.762 7.063h.314c.314 0 .471-.157.785-.157 2.668-1.883 5.493-3.924 8-5.807l.314-.157h-.942a13.776 13.776 0 0 1-3.133-.629z" class="cls-1" transform="translate(19.717 48.178)"/>
        <path id="Path_55" d="M52.327 76.513a2.146 2.146 0 0 0-2.2-1.413 2.38 2.38 0 0 0-2.354 3.3c.157.471.314.785.471 1.256a21.923 21.923 0 0 0 4.556-1.417 7.075 7.075 0 0 0-.473-1.726z" class="cls-1" transform="translate(25.052 41.059)"/>
        <path id="Path_56" d="M58.545 91.027c-.314-.628-.471-1.256-.785-1.883-.157-.157-.157-.471-.314-.628-.471-.942-.785-2.04-1.256-2.982 0-.157-.157-.314-.157-.471-.471-.942-.785-2.04-1.256-2.982-.628-1.413-1.1-2.668-1.726-4.081a22.272 22.272 0 0 1-4.551 1.569c2.04 4.708 3.924 9.26 5.807 13.968.314.942.785 1.883 1.1 2.825a3.283 3.283 0 0 0 .628.942 4.842 4.842 0 0 0 1.413.157h.471c.314-.157 1.1-.785 2.354-1.569a6.8 6.8 0 0 0-.157-.785 12.3 12.3 0 0 1-.785-2.2c-.314-.785-.628-1.413-.785-1.883z" class="cls-1" transform="translate(25.583 42.711)"/>
        <path id="Path_57" d="M55.726 91.6c-.471 0-1.1-.157-1.569-.157H54a14.875 14.875 0 0 0 2.04 1.726.577.577 0 0 0 .471.157c.157 0 .157-.157.314-.314.157-.471.157-1.569.314-2.511a2.166 2.166 0 0 0-.471.628.949.949 0 0 1-.942.471z" class="cls-1" transform="translate(28.715 49.829)"/>
    </g>
</svg>
