<svg xmlns="http://www.w3.org/2000/svg" width="80.307" height="98.852" viewBox="0 0 80.307 98.852">
    <g>
        <g>
            <path fill="#fff" d="M217.343 289.883c-8.549-.189-15.508 3.442-20.24 7a25.961 25.961 0 0 0-10.032 15.751 14.064 14.064 0 0 0 .039 5.963c1.67 5.442-4.172 12.267-5.42 13.838-1.185 1.536-4.361 5.01.982 5.648 5.316.673 1.059 5 1.894 6.56s1.154 2.461 2.052 2.946c0 0-5.057 3.617-.316 6.051 0 0-5.766 6.354.808 10.26 6.564 3.933 15.174 3.205 17.294 4.911 1.85 1.536 7.01 7.581 5.735 13.383a3.072 3.072 0 0 0 1.824 3.49c11.18 4.23 23 3.917 35.306-.09a3 3 0 0 0 1.859-3.859c-2.406-6.618-2.062-13.328-1.649-23.134.548-11.18 19.378-24.606 9.769-46.391-9.573-21.813-23.342-22.013-39.9-22.327zm7.735 6.367a8.523 8.523 0 0 1 6.034 2.017 9.07 9.07 0 0 1 2.07-.4 8.615 8.615 0 0 1 8.243 4.858 8.524 8.524 0 0 1 6.682 7.858 7.717 7.717 0 0 1-.21 2.49 8.52 8.52 0 0 1 .948 10.225 8.506 8.506 0 0 1-2.845 6.311 8.072 8.072 0 0 1-1.666 1.175 17.222 17.222 0 0 0-5.928 7.629 5.442 5.442 0 0 1-4.806 3.912 5.332 5.332 0 0 1-5.63-4.718l-.14-1.3a15.076 15.076 0 0 0-3.876-8.454 7.558 7.558 0 0 0-7.524-1.964 10.283 10.283 0 0 1-1.631.263 8.349 8.349 0 0 1-5.1-1.35 8.645 8.645 0 0 1-7.735 1.824 8.522 8.522 0 0 1-6.069-5.4 8.737 8.737 0 0 1 4.262-10.8 8.584 8.584 0 0 1 8.068-8.752 3.932 3.932 0 0 1 .912 0 8.485 8.485 0 0 1 6.858-4.157 8.393 8.393 0 0 1 4.087.754 8.592 8.592 0 0 1 5-2.017zm-4.244 5.77a.963.963 0 0 0-.824 1.088 9.8 9.8 0 0 1-9.734 11.137 11.853 11.853 0 0 0 .3-2.473 11.62 11.62 0 0 0-2.368-7.051.952.952 0 0 0-1.333-.193.965.965 0 0 0-.193 1.351 9.654 9.654 0 0 1 1.965 5.893 9.839 9.839 0 0 1-6 9.068.96.96 0 0 0 .368 1.842.973.973 0 0 0 .387-.09 11.706 11.706 0 0 0 6.3-6.455c.2.007.4.036.6.036a11.7 11.7 0 0 0 10.1-5.788 11.623 11.623 0 0 0 8.086 3.35 11.908 11.908 0 0 0 3.648-.578c.368-.126.711-.3 1.07-.456 1.581.916 7.751 5.089 4.087 12.839a72.695 72.695 0 0 1-3.49 6.63c-1.311 2.236-1.491 2.655-1.491 6.121a.968.968 0 0 0 .964.964.954.954 0 0 0 .947-.964c0-3.08.063-3.145 1.228-5.139a74.8 74.8 0 0 0 3.56-6.788c3.781-7.938-1.28-12.821-3.894-14.7a11.688 11.688 0 0 0 3-2.947.956.956 0 0 0-1.561-1.1 9.8 9.8 0 0 1-15.294.965 11.524 11.524 0 0 0 .666-5.736.973.973 0 0 0-1.088-.824z" transform="translate(-179.669 -289.875)"/>
        </g>
    </g>
</svg>
