<svg xmlns="http://www.w3.org/2000/svg" width="119.952" height="103.352" viewBox="0 0 119.952 103.352">
    <defs>
        <style>
            .cls-1{fill:#fff}
        </style>
    </defs>
    <g id="noun_development_637205" transform="translate(-2.2 -9.394)">
        <path id="Path_753" d="M36.305 76.385l-2.621 10.984 8.487-5.991-1.123-4.743 3.62-4.119a.75.75 0 0 0 .125-.5l-2.247-5.366c-.125-.125-.25-.25-.374-.25h-6.865c-.125 0-.374.125-.374.25l-2.123 5.367c-.125.125 0 .374.125.5z" class="cls-1" transform="translate(7.582 14.145)"/>
        <path id="Path_754" d="M42.388 20a24.588 24.588 0 1 0 24.588 24.588A24.556 24.556 0 0 0 42.388 20zm0 43.56a19.1 19.1 0 0 1-19.1-19.1 18.737 18.737 0 0 1 .624-4.618 25.576 25.576 0 0 0 10.859 2.621 18.012 18.012 0 0 0 10.359-3.245c.374-.25 8.737-6.241 15.477-.25a19.455 19.455 0 0 1 .874 5.492 19.017 19.017 0 0 1-19.093 19.1z" class="cls-1" transform="translate(3.871 2.632)"/>
        <path id="Path_755" d="M45.412 93.217L44.164 88.1 36.8 93.217z" class="cls-1" transform="translate(8.585 19.529)"/>
        <path id="Path_756" d="M33.047 95.029l11.733-8.238-1.373-5.991-10.36 7.364-1.747 6.865z" class="cls-1" transform="translate(7.22 17.718)"/>
        <path id="Path_757" d="M79.227 98.651V87.543A21.254 21.254 0 0 0 57.884 66.2h-.624L47.4 98.651z" class="cls-1" transform="translate(11.215 14.095)"/>
        <path id="Path_758" d="M33.9 98.651L24.417 66.2h-.874A21.254 21.254 0 0 0 2.2 87.543v11.108z" class="cls-1" transform="translate(0 14.095)"/>
        <path id="Path_759" d="M80.641 22.8a6.241 6.241 0 1 0 6.241 6.241 6.18 6.18 0 0 0-6.241-6.241zm0 9.361a3 3 0 1 1 3-3 2.957 2.957 0 0 1-3 3z" class="cls-1" transform="translate(17.915 3.326)"/>
        <path id="Path_760" d="M106.917 27a23.7 23.7 0 0 0-28.832-16.85 23.512 23.512 0 0 0-6.615 42.561L65.23 62.2l24.838-6.49A23.514 23.514 0 0 0 106.917 27zm-10.235 6.99a.59.59 0 0 1-.624.624h-2a9.629 9.629 0 0 1-1.248 3.12l1.373 1.373c.125.125.125.25.125.5 0 .125-.125.374-.125.5l-2.243 2.245c-.125.125-.25.125-.5.125a.75.75 0 0 1-.5-.125l-1.373-1.373a10.089 10.089 0 0 1-3.37 1.373v1.872a.59.59 0 0 1-.624.624h-3.12a.59.59 0 0 1-.624-.624v-1.872a8.752 8.752 0 0 1-3.495-1.5l-1.5 1.5c-.125.125-.25.125-.5.125a.75.75 0 0 1-.5-.125l-2.247-2.247c.125 0 0-.125 0-.25s.125-.374.125-.5l1.623-1.623a9.628 9.628 0 0 1-1.248-3.12h-2a.59.59 0 0 1-.624-.624v-3.12a.59.59 0 0 1 .624-.624h2a8.234 8.234 0 0 1 1.5-3.37l-1.747-1.747c-.125-.125-.125-.25-.125-.5 0-.125.125-.374.125-.5l2.247-2.247a.6.6 0 0 1 .874 0l1.872 1.872a9.629 9.629 0 0 1 3.12-1.248v-2.119a.59.59 0 0 1 .624-.624H85.7a.59.59 0 0 1 .624.624v2.122a13.588 13.588 0 0 1 3.12 1.248l1.747-1.747a.6.6 0 0 1 .874 0l2.247 2.247c.125.125.125.25.125.5s-.125.374-.125.5l-1.623 1.623a10.089 10.089 0 0 1 1.373 3.37h2a.59.59 0 0 1 .624.624z" class="cls-1" transform="translate(14.479)"/>
    </g>
</svg>
