<svg xmlns="http://www.w3.org/2000/svg" width="155.077" height="155.187" viewBox="0 0 155.077 155.187">
    <defs>
        <style>
            .cls-1{fill:#f5d868}
        </style>
    </defs>
    <g id="noun_Address_1722038">
        <path id="Path_764" d="M134.749 27.47h-19.482a1.212 1.212 0 1 0 0 2.423h18.27v85.317h-9.813V98.975a1.212 1.212 0 0 0-1.212-1.212h-7.148a1.212 1.212 0 1 0 0 2.423h5.888v15.024h-17.228v-4.458a1.212 1.212 0 1 0-2.423 0v4.458H91.582a1.212 1.212 0 0 0 0 2.423h43.167a1.212 1.212 0 0 0 1.212-1.212V28.682a1.212 1.212 0 0 0-1.212-1.212z" class="cls-1" transform="translate(19.117 5.92)"/>
        <path id="Path_765" d="M80.059 117.96H58.966v-6.991a1.212 1.212 0 0 0-2.423 0v25.164h-8.081v-19.906a1.212 1.212 0 0 0-2.423 0v19.906H10.9v-27.138h10.023a1.212 1.212 0 0 0 0-2.423H9.692a1.212 1.212 0 0 0-1.212 1.212v28.35H2.423V16.893h12.443a1.212 1.212 0 1 0 0-2.423H1.212A1.212 1.212 0 0 0 0 15.682v121.663a1.212 1.212 0 0 0 1.212 1.212h56.542a1.212 1.212 0 0 0 1.212-1.212v-16.962h21.093a1.212 1.212 0 1 0 0-2.423z" class="cls-1" transform="translate(0 3.17)"/>
        <path id="Path_766" d="M111.212 46.711a1.212 1.212 0 1 0 0 2.423h7.051a1.212 1.212 0 0 0 1.212-1.212v-10.6a1.212 1.212 0 0 0-1.212-1.212h-7.051a1.212 1.212 0 1 0 0 2.423h5.84v8.178z" class="cls-1" transform="translate(23.27 7.748)"/>
        <path id="Path_767" d="M111.212 64.4a1.212 1.212 0 1 0 0 2.423h7.051a1.212 1.212 0 0 0 1.212-1.212v-10.6a1.212 1.212 0 0 0-1.212-1.212h-7.051a1.212 1.212 0 1 0 0 2.423h5.84V64.4z" class="cls-1" transform="translate(23.27 11.49)"/>
        <path id="Path_768" d="M111.212 84.524h7.051a1.212 1.212 0 0 0 1.212-1.212v-10.6a1.212 1.212 0 0 0-1.212-1.212h-4.992a1.212 1.212 0 1 0 0 2.423h3.78V82.1h-5.84a1.212 1.212 0 1 0 0 2.423z" class="cls-1" transform="translate(23.27 15.234)"/>
        <path id="Path_769" d="M40.622 16.893H47.3a1.212 1.212 0 1 0 0-2.423h-6.678a1.212 1.212 0 0 0 0 2.423z" class="cls-1" transform="translate(8.337 3.17)"/>
        <path id="Path_770" d="M7.11 24.632v10.4a1.212 1.212 0 0 0 1.212 1.212h10.407a1.212 1.212 0 0 0 1.212-1.212v-10.4a1.212 1.212 0 0 0-1.212-1.212H8.322a1.212 1.212 0 0 0-1.212 1.212zm2.423 1.212h7.984v7.972H9.533z" class="cls-1" transform="translate(1.504 5.063)"/>
        <path id="Path_771" d="M19.94 42a1.212 1.212 0 0 0-1.212-1.212H8.322A1.212 1.212 0 0 0 7.11 42v10.409a1.212 1.212 0 0 0 1.212 1.211h10.407a1.212 1.212 0 0 0 1.212-1.212zm-2.423 9.2H9.533v-7.987h7.984z" class="cls-1" transform="translate(1.504 8.738)"/>
        <path id="Path_772" d="M19.94 59.372a1.212 1.212 0 0 0-1.212-1.212H8.322a1.212 1.212 0 0 0-1.212 1.212v10.407a1.212 1.212 0 0 0 1.212 1.211h10.407a1.212 1.212 0 0 0 1.212-1.212zm-2.423 9.2H9.533v-7.989h7.984z" class="cls-1" transform="translate(1.504 12.412)"/>
        <path id="Path_773" d="M18.729 75.53H8.322a1.212 1.212 0 0 0-1.212 1.212v10.407a1.212 1.212 0 0 0 1.212 1.211h10.407a1.212 1.212 0 0 0 1.212-1.212V76.742a1.212 1.212 0 0 0-1.212-1.212zm-1.212 10.407H9.533v-7.984h7.984z" class="cls-1" transform="translate(1.504 16.087)"/>
        <path id="Path_774" d="M125.942 10.1a3.174 3.174 0 1 1 2.245-.943 3.162 3.162 0 0 1-2.245.943zm0-3.913a.31.31 0 1 0 0-.036z" class="cls-1" transform="translate(25.973 .909)"/>
        <path id="Path_775" d="M49.662 45.24a1.212 1.212 0 0 0-1.212 1.212v19.6a1.212 1.212 0 1 0 2.423 0v-19.6a1.212 1.212 0 0 0-1.211-1.212z" class="cls-1" transform="translate(10.249 9.679)"/>
        <path id="Path_776" d="M81.655 42.48A17.519 17.519 0 0 0 64.16 59.987c0 9.268 15.823 32.481 16.5 33.463a1.212 1.212 0 0 0 2 0c.691-.994 16.44-24.207 16.44-33.463A17.519 17.519 0 0 0 81.655 42.48zm0 48.1c-3.513-5.307-15.072-23.334-15.072-30.591a15.078 15.078 0 1 1 30.155 0c-.06 7.255-11.57 25.283-15.083 30.589z" class="cls-1" transform="translate(13.573 9.095)"/>
        <path id="Path_777" d="M80.252 49.12a9.462 9.462 0 1 0 9.462 9.462 9.462 9.462 0 0 0-9.462-9.462zm0 16.489a7.039 7.039 0 1 1 7.039-7.039 7.039 7.039 0 0 1-7.039 7.039z" class="cls-1" transform="translate(14.975 10.5)"/>
        <path id="Path_778" d="M35.576 13.223a7.863 7.863 0 1 0-7.863 7.863 7.863 7.863 0 0 0 7.863-7.863zm-13.327 0a5.428 5.428 0 1 0 .024 0z" class="cls-1" transform="translate(4.199 1.243)"/>
        <path id="Path_779" d="M129.806 87.929a10.419 10.419 0 0 0-2.3-6.542V21.342a1.212 1.212 0 0 0-1.745-1.09L92.248 36.608l-34.856-16.5a1.212 1.212 0 0 0-.412-.1 1.212 1.212 0 0 0-.388 0h-.182L37.39 29.29c3.053-5.476 5.864-11.485 5.864-15.023a14.357 14.357 0 0 0-28.714 0c0 5.04 5.706 15.1 9.692 21.456l-1.975.969a1.212 1.212 0 0 0-.678 1.09v86.759a1.212 1.212 0 0 0 1.745 1.09L56.883 109.3l34.711 16.574a1.212 1.212 0 0 0 .46.109 1.212 1.212 0 0 0 .472-.109l34.174-16.683a1.212 1.212 0 0 0 .678-1.09V95.113a19.385 19.385 0 0 0 2.423-7.184zm-2.423 0c0 3.441-5.125 11.994-8.045 16.453-2.92-4.458-8.045-13.012-8.045-16.453a8.045 8.045 0 1 1 16.089 0zM28.836 2.442A11.946 11.946 0 0 1 40.77 14.376c0 5.173-7.863 18.173-11.934 24.231C24.765 32.452 16.9 19.5 16.9 14.376A11.946 11.946 0 0 1 28.836 2.442zm96.233 104.9l-31.742 15.503v-14.466a1.212 1.212 0 1 0-2.423 0v14.539l-32.821-15.726v-20.5a1.212 1.212 0 0 0-2.423 0V107.2l-31.743 15.5V38.643l1.539-.751c1.308 2.048 2.241 3.417 2.423 3.635a1.212 1.212 0 0 0 2 0c.23-.339 2.617-3.841 5.319-8.36l20.51-10.008v22.232a1.212 1.212 0 1 0 2.423 0v-22.28L90.9 38.655v7.572a1.212 1.212 0 1 0 2.423 0v-7.439l31.742-15.508v55.9a10.456 10.456 0 0 0-16.21 8.747c0 5.331 8.481 17.907 9.474 19.312a1.212 1.212 0 0 0 2 0c.46-.666 2.6-3.853 4.737-7.572z" class="cls-1" transform="translate(3.076 .09)"/>
        <path id="Path_780" d="M102.03 67.69a5.9 5.9 0 1 0 5.9 5.9 5.9 5.9 0 0 0-5.9-5.9zm0 9.377a3.471 3.471 0 1 0 0-.012z" class="cls-1" transform="translate(20.336 14.428)"/>
        <path id="Path_781" d="M101.552 113.754a3.162 3.162 0 1 1 3.162-3.162 3.162 3.162 0 0 1-3.162 3.162zm0-3.913a.739.739 0 1 0 .739.739.739.739 0 0 0-.739-.739z" class="cls-1" transform="translate(20.814 22.835)"/>
        <path id="Path_782" d="M4.846 128.423H1.212a1.212 1.212 0 1 1 0-2.423h3.634a1.212 1.212 0 1 1 0 2.423z" class="cls-1" transform="translate(0 26.763)"/>
        <path id="Path_783" d="M141.471 128.423h-6.918a1.212 1.212 0 1 1 0-2.423h6.918a1.212 1.212 0 0 1 0 2.423zm-13.848 0H120.7a1.212 1.212 0 1 1 0-2.423h6.918a1.212 1.212 0 0 1 0 2.423zm-13.848 0h-6.93a1.212 1.212 0 1 1 0-2.423h6.918a1.212 1.212 0 1 1 0 2.423zm-13.848 0h-6.918a1.212 1.212 0 1 1 0-2.423h6.918a1.212 1.212 0 1 1 0 2.423zm-13.848 0h-6.918a1.212 1.212 0 1 1 0-2.423h6.918a1.212 1.212 0 1 1 0 2.423zm-13.848 0h-6.918a1.212 1.212 0 1 1 0-2.423h6.918a1.212 1.212 0 1 1 0 2.423zm-13.848 0h-6.918a1.212 1.212 0 1 1 0-2.423h6.918a1.212 1.212 0 1 1 0 2.423zm-13.848 0h-6.918a1.212 1.212 0 1 1 0-2.423h6.918a1.212 1.212 0 1 1 0 2.423zm-13.848 0h-6.918a1.212 1.212 0 1 1 0-2.423h6.918a1.212 1.212 0 1 1 0 2.423zm-13.848 0H9.922a1.212 1.212 0 1 1 0-2.423h6.918a1.212 1.212 0 1 1 0 2.423z" class="cls-1" transform="translate(1.843 26.763)"/>
        <path id="Path_784" d="M127.846 128.423h-3.635a1.212 1.212 0 1 1 0-2.423h3.635a1.212 1.212 0 0 1 0 2.423z" class="cls-1" transform="translate(26.02 26.763)"/>
        <path id="Path_785" d="M153.866 121.173H1.212a1.212 1.212 0 0 1 0-2.423h152.654a1.212 1.212 0 0 1 0 2.423z" class="cls-1" transform="translate(0 25.23)"/>
        <path id="Path_786" d="M71.842 19.385a3.722 3.722 0 0 1-1.623-7.075 6.23 6.23 0 0 1 0-.715 7.366 7.366 0 0 1 7.33-7.378 7.572 7.572 0 0 1 1.7.194A7.645 7.645 0 0 1 86.15 0a7.742 7.742 0 0 1 7.027 4.6h.123a6.712 6.712 0 0 1 6.419 4.68 4.313 4.313 0 0 1 1.272-.194 4.289 4.289 0 0 1 4.083 3.029 3.719 3.719 0 0 1-1.442 7.16l-31.779.109zm5.694-12.806a4.943 4.943 0 0 0-4.919 4.943 4.847 4.847 0 0 0 .194 1.212 1.212 1.212 0 0 1-1.066 1.527 1.353 1.353 0 0 0 .1 2.7l31.779-.1a1.3 1.3 0 0 0 .206-2.581 1.212 1.212 0 0 1-1.006-1.054 1.866 1.866 0 0 0-1.829-1.72 1.878 1.878 0 0 0-1.321.545 1.212 1.212 0 0 1-2.072-.824 4.313 4.313 0 0 0-4.325-4.2 4.773 4.773 0 0 0-.727.073 1.212 1.212 0 0 1-1.369-.86 5.307 5.307 0 0 0-5.031-3.817A5.258 5.258 0 0 0 81.122 6.2a1.212 1.212 0 0 1-1.636.763 4.846 4.846 0 0 0-1.951-.388z" class="cls-1" transform="translate(14.408 .109)"/>
    </g>
</svg>
