<svg xmlns="http://www.w3.org/2000/svg" width="187.633" height="187.633" viewBox="0 0 187.633 187.633">
    <defs>
        <style>
            .cls-1{fill:#071826}
        </style>
    </defs>
    <g id="noun_Mail_2051381" transform="translate(-.077)">
        <g id="Group_156" transform="translate(.077)">
            <path id="Path_761" d="M7.818 14A7.826 7.826 0 0 0 0 21.818l20.847 15.636H39.09v7.818H19.545a3.907 3.907 0 0 1-2.345-.782L0 31.591v44.953a7.826 7.826 0 0 0 7.818 7.818h70.363v-39.09H46.908v-7.818h31.273V14zM39.09 68.726H23.454v-7.818H39.09z" class="cls-1" transform="translate(0 40.726)"/>
            <g id="Group_155" transform="translate(50.817)">
                <path id="Path_762" d="M28 66.453a11.727 11.727 0 1 0 15.636-11.007V23.454h11.727A11.741 11.741 0 0 0 67.09 11.727V3.909A3.908 3.908 0 0 0 63.181 0H39.727a3.908 3.908 0 0 0-3.909 3.909v51.537A11.711 11.711 0 0 0 28 66.453zm11.727 3.909a3.909 3.909 0 1 1 3.909-3.909 3.913 3.913 0 0 1-3.909 3.91z" class="cls-1" transform="translate(30.635)"/>
                <path id="Path_763" d="M130.271 8h-39.09v21.715a15.636 15.636 0 1 1-15.636 0V8h-43A19.567 19.567 0 0 0 13 27.545h7.818a11.741 11.741 0 0 1 11.727-11.727h3.909a11.741 11.741 0 0 1 11.727 11.727v70.363a3.908 3.908 0 0 0 3.909 3.909h12.29l1.927 12.329a3.9 3.9 0 0 0 3.862 3.307h5.375v46.908H99v-46.908h5.375a3.9 3.9 0 0 0 3.862-3.307l1.927-12.329h27.926a11.741 11.741 0 0 0 11.726-11.727V27.545A19.567 19.567 0 0 0 130.271 8zm-27.363 78.181H87.272v-7.818h15.636zm31.272 0h-23.454v-7.818h23.454z" class="cls-1" transform="translate(-13 23.272)"/>
            </g>
        </g>
    </g>
</svg>
