<svg xmlns="http://www.w3.org/2000/svg" width="287.042" height="299.925" viewBox="0 0 287.042 299.925">
    <defs>
        <style>
            .cls-1{fill:#0062c3}
        </style>
    </defs>
    <g id="noun_contact_1092471" transform="translate(-6.219 -1)">
        <g id="Group_91" transform="translate(6.219 1)">
            <path id="Path_77" d="M106.027 113.588a19.866 19.866 0 0 0-3.464 6.148 42.213 42.213 0 0 1-9.6 16.375c-6.26 6.419-13.5 9.815-20.942 9.815H72c-7.484 0-14.764-3.435-21.067-9.912a42.179 42.179 0 0 1-9.815-17.13 13.626 13.626 0 0 0-2.593-4.654c-7.658-8.94-10.855-17.5-10.062-26.945l.048-.6c.039-.518.1-1.234.179-1.693 2.578-.856 4.1-3.328 4.184-6.811.058-2.477.077-4.983.1-7.406.024-2.7.048-5.457.126-8.2a8.3 8.3 0 0 1 8.306-8.306h.247l4.17.121c3.435-.281 6.9-.247 10.362-.29 3.091-.039 6.187-.01 9.278-.01h9.119c3.319 0 6.637.01 9.956 0 2.453-.01 4.905-.048 7.353-.058 2.119-.015 4.242 0 6.361-.01a20.471 20.471 0 0 1 6.124.576 7.841 7.841 0 0 1 5.1 4.252 33.685 33.685 0 0 1 1.393 4.368l.073-.087c.063 2.356.063 4.76.058 7.232 0 2.153-.01 4.378.039 6.594.015.59.01 1.185 0 1.824v1.243a5.135 5.135 0 0 0 4.213 5.05c.1.46.164 1.1.189 1.359 1.025 9.488-1.974 18.123-9.414 27.155zM17.341 86.895c.193 1.988.314 3.986.45 5.979.658 9.859 4.833 19.171 12.65 28.294a2.871 2.871 0 0 1 .527.938A52.575 52.575 0 0 0 43.3 143.45c8.354 8.587 18.276 13.124 28.7 13.129h.019c10.376 0 20.259-4.5 28.57-13.032a52.567 52.567 0 0 0 12.07-20.4 9.341 9.341 0 0 1 1.6-2.791c8.093-9.825 12.06-19.829 12.045-30.457 0-.735 0-1.475.01-2.211l.155-36.789q-.276-1.829-.542-3.715c.194.5.382.982.566 1.446.334.851.653 1.659.943 2.477.45 1.253.837 2.525 1.248 3.793a1.925 1.925 0 0 0-.048-.672 51 51 0 0 0-3.556-11.61c-.135-.29-.271-.58-.4-.871a.015.015 0 0 1 0-.01c-.242-.542-.464-1.084-.663-1.635q-.871-2.366-1.737-4.736l-1.306-3.6c-.082-.218-.164-.431-.242-.648l.261-.145 4.446 7.014a22.538 22.538 0 0 0-.822-2.327 24.055 24.055 0 0 0-5.689-8.693 9.3 9.3 0 0 1-1.456-1.688c-2.636-3.928-5.805-7.261-10.144-9.283-.126-.063-.256-.121-.382-.179-1.993-.885-4.005-1.722-6.008-2.578-.5-.213-1-.431-1.5-.648 1.016.082 2.022.193 3.014.343a57.854 57.854 0 0 1 16.215 5.205 4.091 4.091 0 0 0-.653-.518 45.606 45.606 0 0 0-20.608-7.2c-.285-.034-.571-.063-.856-.092a26.028 26.028 0 0 1-7.363-1.277 24.075 24.075 0 0 0-2.9-.827c-1.127-.29-2.254-.566-3.377-.847-.271-.068-.542-.131-.813-.2.015-.14.01-.1.029-.237h12.81c-.1-.252-.213-.329-.334-.343A72.055 72.055 0 0 0 77.8 5.707a25.453 25.453 0 0 1-5.757 0c-.847-.116-1.708-.15-2.564-.223 0-.145 0-.1-.01-.247 4.18-.779 8.359-1.558 12.781-2.385A84.266 84.266 0 0 0 69.5 3.985c-2.307.406-4.562 1.146-6.884 1.446-3.309.431-6.661.6-10.014.885C59.234 3.172 66.32 1.8 73.543 1c-1.359.039-2.714-.024-4.068.048a69.369 69.369 0 0 0-14.813 2.177 29.466 29.466 0 0 0-11.112 5.3 18.608 18.608 0 0 1-2.066 1.272c-.068-.106-.14-.208-.208-.319 1.509-1.088 2.961-2.269 4.538-3.256a49.874 49.874 0 0 1 5.012-2.694c1.659-.779 3.386-1.4 5.084-2.095A49.442 49.442 0 0 0 46.187 5C40 8.039 35.346 13.1 30 17.249a.224.224 0 0 1-.034.034c-.348.561-.726 1.1-1.03 1.688-.45.861-.793 1.79-1.306 2.607a2.559 2.559 0 0 1-1.166.813c-.876.358-1.814.566-2.68.953A14.538 14.538 0 0 0 15.3 33.876a19.046 19.046 0 0 1 4.547-5.976c-.551 1.9-1.011 3.589-1.548 5.254a8.888 8.888 0 0 1-1 2.085 21.168 21.168 0 0 0-2.467 5.389l2.38-4.059c.063.034.126.063.184.1-.077.348-.15.7-.232 1.05l-.044.2a90.208 90.208 0 0 0-1.746 28.715z" class="cls-1" transform="translate(45.648 -1)"/>
            <g id="Group_90" transform="translate(175.219 188.101)">
                <path id="Path_78" d="M94.465 151.707A55.912 55.912 0 1 1 150.376 95.8a55.976 55.976 0 0 1-55.911 55.907zm0-97.05A41.133 41.133 0 1 0 135.6 95.791a41.18 41.18 0 0 0-41.135-41.133z" class="cls-1" transform="translate(-38.553 -39.884)"/>
                <path id="Path_79" d="M94.807 96a6.322 6.322 0 0 0-1.122-2.994c-1.03-1.359-2.051-2.728-3.072-4.093s-2.022-2.7-3.043-4.054l-.155-.2a8.119 8.119 0 0 0-1.558-1.7 5.028 5.028 0 0 0-6.1-.034c-.46.319-.9.653-1.33.982l-.29.218-2.153 1.635-.4.3a39.375 39.375 0 0 1-9.767-9.791 42.048 42.048 0 0 1-4.668-9.448c.169-.111.343-.227.518-.353.31-.232.619-.46.929-.687.943-.682 1.911-1.393 2.83-2.158a5.082 5.082 0 0 0 .808-7.237c-.5-.658-.987-1.316-1.48-1.979l-.987-1.321c-.4-.527-.793-1.059-1.185-1.587-1.016-1.359-2.066-2.767-3.115-4.136a4.983 4.983 0 0 0-6.613-1.258 16.2 16.2 0 0 0-3.585 2.815 14.419 14.419 0 0 0-3.4 5.882c-.116.4-.232.8-.348 1.209l-.15.527-.411 2.791-.01 1.974A23.983 23.983 0 0 0 45.949 68a43.115 43.115 0 0 0 4.765 10.4 92.606 92.606 0 0 0 5.655 8.219 60.389 60.389 0 0 0 6.931 7.654 45.005 45.005 0 0 0 6.516 5.1 33.2 33.2 0 0 0 9.627 4.315 13.933 13.933 0 0 0 3.507.455 14.837 14.837 0 0 0 10.624-4.733 5.209 5.209 0 0 0 .75-1.209c.073-.15.145-.3.223-.435l.082-.15.208-1.471z" class="cls-1" transform="translate(-13.978 -18.842)"/>
            </g>
            <path id="Path_80" d="M165.457 121.594a68.018 68.018 0 0 1 34.849-59.317 83.509 83.509 0 0 0-23.239-8.267c-7.1-1.466-16.646-12.147-20.714-20.85l-2.167 1.616a54.484 54.484 0 0 1-34.443 12.587A54.512 54.512 0 0 1 85.3 34.776l3.159 2.559a64.6 64.6 0 0 1-5.326-4.175c-4.063 8.7-13.613 19.379-20.714 20.85-31.255 6.448-50.029 24.4-53.943 56.758l-6.1 46.769c-.2 3.812.261 4.47 3.783 5.829 1.669.648 3.352 1.267 5.05 1.829 15.494 5.089 31.5 7.774 47.649 9.119 20.3 1.7 40.674 2.569 51.142 3.2 32.31-.276 56.289-1.214 79.422-4.194a67.826 67.826 0 0 1-23.965-51.726z" class="cls-1" transform="translate(-2.332 122.414)"/>
        </g>
    </g>
</svg>
