<svg xmlns="http://www.w3.org/2000/svg" width="158.895" height="148.316" viewBox="0 0 158.895 148.316">
    <g>
        <g>
            <path fill="#0062c3" fill-rule="evenodd" d="M73.237 73.7h46.348v64.66h46.307v22.97H128.5v37.4H73.237v-27.462q1.649-.337 3.273-.787l29.241 17.354-6.244-32.119a36.62 36.62 0 0 0 8.358-23.117c0-20.211-16.021-34.71-34.628-38.623V73.7zM63.153 98.276C41.42 98.276 23.8 113.643 23.8 132.6s17.62 34.324 39.353 34.324a44.373 44.373 0 0 0 14.059-2.257l21 12.464-4.462-22.95a31.6 31.6 0 0 0 8.757-21.581c.001-18.957-17.62-34.324-39.354-34.324zm26.334 22.87H36.819v6.8h52.668zm0 14.647H36.819v6.8h52.668zm35.455-85.383h57.753V133h-57.753zm4.659 66.56h48.436v5.216H129.6zm0-13.647h48.436v5.216H129.6zm0-27.292h48.436v5.216H129.6zm12.345-13.645h23.745V67.6h-23.745v-5.215zm-5.357 136.341v-29.3h29.3z" transform="translate(279.02 -225.352) translate(-279.02 225.352) translate(-23.8 -50.41)"/>
        </g>
    </g>
</svg>
