<svg xmlns="http://www.w3.org/2000/svg" width="104.277" height="103.352" viewBox="0 0 104.277 103.352">
    <defs>
        <style>
            .cls-1{fill:#fff}
        </style>
    </defs>
    <g id="noun_classroom_1971090" transform="translate(-1.718 -2)">
        <g id="Group_144" transform="translate(1.718 2)">
            <path id="Path_731" d="M19.5 66.52a4.608 4.608 0 0 0 4.228 5.011h.47a4.76 4.76 0 0 0 4.7-4.385l.157-.94L20.756 51.8z" class="cls-1" transform="translate(8.343 26.184)"/>
            <path id="Path_732" d="M55.1 70.414a3.132 3.132 0 0 0 6.264 0V59.3a23.946 23.946 0 0 1-6.264-1.1z" class="cls-1" transform="translate(28.494 29.806)"/>
            <path id="Path_733" d="M60.8 70.528a3.132 3.132 0 0 0 6.264 0V58a29.609 29.609 0 0 1-6.264 1.253v11.275z" class="cls-1" transform="translate(31.72 29.693)"/>
            <path id="Path_734" d="M56.6 33.77c0 6.89 10.492 6.89 10.492 0a5.213 5.213 0 0 0-5.168-5.17 5.058 5.058 0 0 0-5.324 5.17z" class="cls-1" transform="translate(29.343 13.051)"/>
            <path id="Path_735" d="M31.683 46.275h4.071l.626-7.047h-1.409l.94-3.6-.311-.158-1.1 3.758h-.157V35h-.47v4.228h-.626v-3.445h-.47v3.445l-.94-3.758-.47.157.94 3.6H30.9z" class="cls-1" transform="translate(14.798 16.676)"/>
            <path id="Path_736" d="M50.55 42.323V40.6H36.3a1.986 1.986 0 0 1 .157.94 1.7 1.7 0 0 1-.157.783z" class="cls-1" transform="translate(17.854 19.845)"/>
            <path id="Path_737" d="M35.857 40.166h14.25a1.184 1.184 0 0 1-.157-.626 1.986 1.986 0 0 1 .157-.94H35.7v1.566z" class="cls-1" transform="translate(17.515 18.714)"/>
            <path id="Path_738" d="M21.853 42.558h68.432a1.235 1.235 0 0 0 1.253-1.253V3.409A1.171 1.171 0 0 0 90.441 2H21.853A1.235 1.235 0 0 0 20.6 3.253v37.9a1.381 1.381 0 0 0 1.253 1.405zm1.409-38.052h65.926v35.7H23.262z" class="cls-1" transform="translate(8.969 -2)"/>
            <path id="Path_739" d="M40.212 57.116c-2.036-3.6-2.192-4.071-2.975-4.854a2.725 2.725 0 0 1-2.506-1.253c-.157 0-.47 0-4.385-.313l-4.385-.47.626-7.517 6.577 4.7a1.422 1.422 0 0 0 1.1.47c.626-2.819 3.758-2.036 4.228-2.192l6.734-7.2a3.1 3.1 0 1 0-4.541-4.228l-6.11 6.571c-9.239-6.264-8.3-6.734-11.9-7.83a8.771 8.771 0 0 1-6.89 0c-1.409.47-3.445 1.253-4.228 2.506-.94 1.723 3.6-6.107-9.4 16.286a3.177 3.177 0 0 0 3.288 4.7c.157 0 8.926-1.879 8.456-1.723 0 .313 0 .47.157.626v-.626c.94-.157 4.385-.94 4.228-.783a3.211 3.211 0 0 0 2.506-3.758.575.575 0 0 0-.157-.47c-1.253-3.445-5.324-1.409-6.264-1.409a13.564 13.564 0 0 0-1.566.313l-1.566.313a22.982 22.982 0 0 0 1.409-2.349v.47c.157 0 4.385-.94 4.071-.783a4.653 4.653 0 0 1 5.481 3.6 4.653 4.653 0 0 1-3.6 5.481c-.783.157-5.481 1.1-5.324 1.1A3.209 3.209 0 0 0 15.625 59h-3.6v-2.2l-.94.157v2.036c-.313 0-.47.313-.47.626V62.6a.674.674 0 0 0 .626.626H18.6v7.2a2.355 2.355 0 0 0-1.566 2.192c0 .313 0 .47.157.626L9.52 81.857h-.157a1.4 1.4 0 0 0-1.409 1.409c-.313.783.47 1.409 1.253 1.409a1.4 1.4 0 0 0 1.409-1.409.575.575 0 0 0-.157-.47l7.36-8.3c.157.157.313.157.626.313v7.2a1.6 1.6 0 0 0-.783 1.253 1.409 1.409 0 1 0 2.819 0 1.24 1.24 0 0 0-.783-1.253v-7.2a1.187 1.187 0 0 0 .626-.313l7.36 8.3c0 .157-.157.313-.157.47a1.409 1.409 0 1 0 1.409-1.409h-.157l-7.673-8.613c0-.157.157-.47.157-.626a2.211 2.211 0 0 0-1.563-2.192v-7.2c6.577-.157 7.986.47 7.986-.626v-2.666c.313 0 3.445.313 3.288.313l7.986 14.094 1.1 1.879v-19.1z" class="cls-1" transform="translate(-1.718 15.544)"/>
            <path id="Path_740" d="M30.6 55.9v13.311a4.777 4.777 0 0 0 3.6-7.047z" class="cls-1" transform="translate(14.628 28.504)"/>
            <path id="Path_741" d="M15.6 23.3a7.2 7.2 0 0 0 0 14.407 7.087 7.087 0 0 0 7.2-7.2 7.285 7.285 0 0 0-7.2-7.207z" class="cls-1" transform="translate(2.064 10.055)"/>
            <path id="Path_742" d="M69.721 43.353c0-2.036-3.132-.783-10.492-1.253H24.622c-1.253 0-1.253 1.879-1.1 2.192.157 1.723 2.349.783 6.107 1.1v34.134h3.6V45.545h27.096v33.981h3.6V45.545h4.854c1.255 0 .942-2.036.942-2.192z" class="cls-1" transform="translate(10.584 20.694)"/>
            <path id="Path_743" d="M15.833 26.538A11.123 11.123 0 1 0 4.4 15.733a11.166 11.166 0 0 0 11.433 10.805zm-8.3-6.89a10.393 10.393 0 0 1-.94-3.132H8a.74.74 0 0 0 .783-.783c0-.47-.313-.626-.783-.626H6.594a7.128 7.128 0 0 1 .783-3.132l1.1.626c.157 0 .157.157.313.157.313 0 .47-.157.626-.47a.753.753 0 0 0-.313-.94L8 10.722h-.154A8.964 8.964 0 0 1 10.2 8.216l.783 1.1a.814.814 0 0 0 .626.313.575.575 0 0 0 .47-.157.59.59 0 0 0 .157-.94l-.783-.94a10.393 10.393 0 0 1 3.132-.94V8.06c0 .47.313.626.783.626.47 0 .626-.313.626-.783V6.337a7.128 7.128 0 0 1 3.132.783l-.783 1.409a.753.753 0 0 0 .313.94h.313a.814.814 0 0 0 .626-.313l.622-1.256a10.539 10.539 0 0 1 2.349 2.2l-1.1.626a.753.753 0 0 0-.313.94.814.814 0 0 0 .626.313c.157 0 .313 0 .313-.157l1.1-.783a10.393 10.393 0 0 1 .94 3.132h-1.409c-.47 0-.783.313-.626.783 0 .47.313.626.783.626h1.566a7.128 7.128 0 0 1-.783 3.132l-1.253-.626a.7.7 0 0 0-.626 1.253l1.253.626a10.539 10.539 0 0 1-2.192 2.349l-.783-1.1a.59.59 0 0 0-.94-.157.753.753 0 0 0-.313.94l.783 1.1a10.393 10.393 0 0 1-3.132.94v-1.571c0-.47-.313-.626-.783-.626s-.783.313-.626.783v1.409a7.128 7.128 0 0 1-3.132-.783L12.544 22a.7.7 0 0 0-1.253-.626l-.626 1.253a10.539 10.539 0 0 1-2.349-2.192l1.1-.783a.753.753 0 0 0 .313-.94.59.59 0 0 0-.94-.157l-1.253 1.1z" class="cls-1" transform="translate(-.201 -.7)"/>
            <path id="Path_744" d="M12.349 15.786A2.515 2.515 0 0 0 14.071 15a1.353 1.353 0 0 0 .47-.94h2.349c.47 0 .626-.313.626-.783s-.313-.626-.783-.626h-2.348a2.354 2.354 0 0 0-1.566-1.409l-.157-2.819c0-.47-.313-.626-.783-.626s-.783.313-.626.783l.313 2.662a3.276 3.276 0 0 0-.94.626A2.355 2.355 0 0 0 10 13.594a2.183 2.183 0 0 0 2.349 2.192zm-.783-2.819a1.187 1.187 0 0 1 .626-.313.9.9 0 0 1 .94.94c0 .313 0 .47-.313.626 0 .157-.313.157-.47.157a1.01 1.01 0 0 1-.94-.94.575.575 0 0 1 .157-.469z" class="cls-1" transform="translate(2.97 1.282)"/>
            <path id="Path_745" d="M43.248 29.257a4.8 4.8 0 0 0-3.6.47c-.157.157-.313.157-.47.313a5.564 5.564 0 0 0-1.723 2.506 4.6 4.6 0 0 0 3.132 5.637h.313a5.261 5.261 0 0 0 3.445-.313 2.809 2.809 0 0 0 1.1-.783 5.525 5.525 0 0 0 1.253-2.036 4.812 4.812 0 0 0-.313-3.288 5.4 5.4 0 0 0-3.137-2.506zm2.352 2.975h-.63v.47c0 .157.157.157.313.313s0 .47 0 .626a.942.942 0 0 0 .157.626c0 .157 0 .157.157.313a.153.153 0 0 0 .157.157c.157-.157.157-.313.157-.626 0-.157.157-.47.157-.626a.575.575 0 0 1 .157-.47v-.47a4 4 0 0 1 0 2.349 4.928 4.928 0 0 1-2.036 2.662c.157-.47.157-.94.47-1.253a.814.814 0 0 0 .313-.626c0-.157 0-.47-.157-.47a.575.575 0 0 1-.47-.157.153.153 0 0 0-.157-.157.575.575 0 0 1 .157-.47h-.313c-.157 0-.157 0-.157-.157v-.157c0-.157-.157-.157-.313-.157s-.47 0-.47-.313v-.157l-.157-.157a1.5 1.5 0 0 0-1.409-.313.5.5 0 0 0-.47.47v.157a.575.575 0 0 1-.157.47v.157h-.157c-.157 0-.157-.157-.313-.157s-.47.157-.626.157c-.47 0-.94-.313-1.409-.157a.476.476 0 0 0 0 .626l.157.157c.157.157 0 .47.157.626a.547.547 0 0 0 .313.157c.157.157.157.313.313.313h.157a1.786 1.786 0 0 1 .94.47c0 .157.157.157.157.313.157 0 .313 0 .157-.157.157 0 .157.157.313.313v.313c0 .157.157.157.313.157v.157a1.986 1.986 0 0 1-.94.157l.313.313a4.187 4.187 0 0 1-2.819-5.168 3.758 3.758 0 0 1 1.1-1.879c.157-.157.313-.313.47-.313.157 0 .157.157.313.157v.157a.153.153 0 0 0 .157.157v.157a.153.153 0 0 1 .157.157h.47c0 .157.157.157.313.157.157-.157.157-.47.313-.47s.157 0 .313-.157a.153.153 0 0 1 .157-.157c.157-.157.47-.313.626-.47s.157-.157.157-.313a.547.547 0 0 0-.157-.313h-.626a6.782 6.782 0 0 1-.783.157c-.313 0-.626.157-.94 0a4.3 4.3 0 0 1 3.132-.313c.157 0 .157 0 .313.157a.153.153 0 0 1 .157.157.153.153 0 0 0 .157.157c.157.157.313.157.47.313 0 .157-.157.157 0 .313 0 .157.157.157.157.313v.157c0 .157.157.313.313.47.313.157.47.157.783.313.153-.001.153.155.153.312z" class="cls-1" transform="translate(18.423 13.337)"/>
            <path id="Path_746" d="M44.32 38.413l1.409-.94a4.069 4.069 0 0 0 1.409-2.506 6.733 6.733 0 0 0-.313-3.915 3.41 3.41 0 0 0-.783-1.253l-.313.313a6.63 6.63 0 0 1 .783 1.1 5.637 5.637 0 0 1 .313 3.6 4.689 4.689 0 0 1-2.661 3.288 5.2 5.2 0 0 1-3.758.47h-.313a10.525 10.525 0 0 1-1.879-.94l-.313.313a5.157 5.157 0 0 0 2.036 1.1h.313a5.872 5.872 0 0 0 1.723.157v1.879h-1.881v1.566h5.794v-1.57h-2.505v-2.349c.313-.157.626-.157.939-.313z" class="cls-1" transform="translate(18.76 13.733)"/>
            <path id="Path_747" d="M42.17 32.3h-.313a.547.547 0 0 0-.157.313v.313a.547.547 0 0 1 .313.157c.157-.313 0-.47.157-.783z" class="cls-1" transform="translate(20.91 15.148)"/>
            <path id="Path_748" d="M38.2 33.442a.153.153 0 0 0 .157.157c0 .157.157.157.313.313v-.157a.153.153 0 0 0-.157-.157c-.157-.157-.157-.157-.313-.157z" class="cls-1" transform="translate(18.929 15.728)"/>
            <path id="Path_749" d="M41.27 29.6c-.157 0-.313.157-.47.157a.153.153 0 0 1 .157.157c.157 0 .157.157.313 0 .156-.001.156-.157 0-.314z" class="cls-1" transform="translate(20.401 13.62)"/>
            <path id="Path_750" d="M77.8 56.466c-6.264-17.852-5.951-17.7-6.577-18.165l-.313-.313c-6.107-4.071-12.841-.626-13.467 1.253l-.157.47-5.946 17.538a2.379 2.379 0 0 0 2.192 3.132c2.662 0 2.506-3.288 3.915-6.734l1.253-3.758.157-.313v1.253l-3.446 17.382c-.47 1.723 9.082 4.385 18.322.94 1.253-.47.157-1.1-3.132-18.791v-.16l.157.47c0 .157 2.662 7.673 2.506 7.2 1.095 2.981 5.636 1.571 4.536-1.404zM66.686 38.927l-.786 2.506h-2.189l-.783-2.506c.156-.783 3.758-.783 3.758 0zm-3.6 12.684l.626-8.926h2.348l.626 8.926-1.723 2.349z" class="cls-1" transform="translate(26.304 17.29)"/>
        </g>
    </g>
</svg>
