<svg xmlns="http://www.w3.org/2000/svg" width="97.101" height="98.852" viewBox="0 0 97.101 98.852">
    <defs>
        <style>
            .cls-1{fill:#fff}
        </style>
    </defs>
    <g id="noun_degree_3621672" transform="translate(-4 -3.99)">
        <g id="Group_137" transform="translate(4 3.99)">
            <path id="Path_715" d="M37.872 16.14a1.762 1.762 0 0 1-.59-.1L24 11.25v6.5h27.743v-6.5l-13.282 4.786a1.762 1.762 0 0 1-.589.104z" class="cls-1" transform="translate(10.679 1.338)"/>
            <path id="Path_716" d="M42.108 37.807a10.277 10.277 0 0 0 4.7-8.67V17H26v12.138a10.277 10.277 0 0 0 4.7 8.67zM39.872 22.2a1.734 1.734 0 0 1 3.468 0v1.734a1.734 1.734 0 0 1-3.468 0zm-10.4 0a1.734 1.734 0 1 1 3.468 0v1.734a1.734 1.734 0 1 1-3.468 0zm.51 7.446a1.734 1.734 0 0 1 2.45 0 5.625 5.625 0 0 0 7.945 0 1.734 1.734 0 1 1 2.451 2.454 9.1 9.1 0 0 1-12.852 0 1.734 1.734 0 0 1 .002-2.453z" class="cls-1" transform="translate(12.147 5.559)"/>
            <path id="Path_717" d="M41.734 21.734A1.734 1.734 0 0 0 40 20v5.2a1.734 1.734 0 0 0 1.734-1.734z" class="cls-1" transform="translate(22.422 7.76)"/>
            <path id="Path_718" d="M24.734 20A1.734 1.734 0 0 0 23 21.734v1.734a1.734 1.734 0 0 0 1.734 1.732z" class="cls-1" transform="translate(9.945 7.76)"/>
            <path id="Path_719" d="M48 51.936h1.734a3.468 3.468 0 1 0 0-6.936H48z" class="cls-1" transform="translate(28.294 26.109)"/>
            <path id="Path_720" d="M48 47.323h1.734a7.094 7.094 0 0 1 1.734.243v-1.977A12.153 12.153 0 0 0 48 37.11z" class="cls-1" transform="translate(28.294 20.318)"/>
            <path id="Path_721" d="M18.2 51.936V45h-1.732a3.468 3.468 0 1 0 0 6.936z" class="cls-1" transform="translate(2.606 26.109)"/>
            <path id="Path_722" d="M101.1 52.734A1.734 1.734 0 0 0 99.367 51H5.734a1.734 1.734 0 0 0 0 3.468h93.633a1.734 1.734 0 0 0 1.733-1.734z" class="cls-1" transform="translate(-4 30.513)"/>
            <path id="Path_723" d="M66.551 32.734A1.734 1.734 0 0 0 64.817 31H19.734A1.734 1.734 0 0 0 18 32.734v29.477h48.551zM42.275 53.541a6.936 6.936 0 1 1 0-13.872 1.734 1.734 0 0 1 0 3.468 3.459 3.459 0 1 0 3.249 2.254 1.734 1.734 0 0 1 3.246-1.214 6.936 6.936 0 0 1-6.5 9.363z" class="cls-1" transform="translate(6.275 15.834)"/>
            <path id="Rectangle_267" d="M0 0H91V10H0z" class="cls-1" transform="translate(3 88.852)"/>
            <path id="Path_724" d="M20.88 10.943L40.161 17.9l19.281-6.953L40.161 3.99z" class="cls-1" transform="translate(8.389 -3.99)"/>
            <path id="Path_725" d="M42 10.669v7.969h1.734v-8.6z" class="cls-1" transform="translate(23.89 .453)"/>
            <path id="Path_726" d="M17.468 37.11A12.153 12.153 0 0 0 14 45.589v1.977a7.093 7.093 0 0 1 1.734-.243h1.734z" class="cls-1" transform="translate(3.339 20.318)"/>
        </g>
    </g>
</svg>
