<svg xmlns="http://www.w3.org/2000/svg" width="29.304" height="27.953" viewBox="0 0 29.304 27.953">
    <g>
        <path fill="#fed42d" d="M29.262 22.41a.858.858 0 0 0-.693-.584l-9.084-1.32-4.063-8.232a.859.859 0 0 0-1.54 0l-4.063 8.231-9.084 1.32a.858.858 0 0 0-.476 1.465l6.574 6.41-1.552 9.045a.859.859 0 0 0 1.246.905l8.125-4.272 8.125 4.272a.858.858 0 0 0 1.246-.9L22.47 29.7l6.574-6.408a.858.858 0 0 0 .218-.882z" transform="translate(0 -11.795)"/>
        <path fill="#fcbf29" d="M270.611 22.41a.858.858 0 0 0-.693-.584l-9.084-1.32-4.063-8.232A.858.858 0 0 0 256 11.8v23.578l8.125 4.272a.858.858 0 0 0 1.246-.9l-1.551-9.05 6.574-6.408a.858.858 0 0 0 .217-.882z" transform="translate(0 -11.795) translate(-241.349)"/>
    </g>
</svg>
